<mxfile host="app.diagrams.net" modified="2024-05-12T19:27:56.085Z" agent="Mozilla/5.0 (Macintosh; Intel Mac OS X 10_15_7) AppleWebKit/537.36 (KHTML, like Gecko) Chrome/124.0.0.0 Safari/537.36" etag="S8XXFMSefS727KyEZrkc" version="24.3.1" type="device">
  <diagram name="Page-1" id="F-6Zm8yCIhwlTN8YRIjM">
    <mxGraphModel dx="2049" dy="1136" grid="1" gridSize="10" guides="1" tooltips="1" connect="1" arrows="1" fold="1" page="1" pageScale="1" pageWidth="850" pageHeight="1100" math="0" shadow="0">
      <root>
        <mxCell id="0" />
        <mxCell id="1" parent="0" />
        <mxCell id="DV4N-qlM-KyrqjE6VusM-4" value="" style="rounded=1;whiteSpace=wrap;html=1;fillColor=none;" vertex="1" parent="1">
          <mxGeometry x="523" y="40" width="510" height="340" as="geometry" />
        </mxCell>
        <mxCell id="DV4N-qlM-KyrqjE6VusM-5" value="" style="outlineConnect=0;dashed=0;verticalLabelPosition=bottom;verticalAlign=top;align=center;html=1;shape=mxgraph.aws3.cloud_2;fillColor=#F58534;gradientColor=none;" vertex="1" parent="1">
          <mxGeometry x="911" y="217.63" width="75" height="75" as="geometry" />
        </mxCell>
        <mxCell id="DV4N-qlM-KyrqjE6VusM-27" value="" style="rounded=0;whiteSpace=wrap;html=1;labelPosition=center;verticalLabelPosition=middle;align=center;verticalAlign=middle;" vertex="1" parent="1">
          <mxGeometry x="548" y="60" width="211" height="100" as="geometry" />
        </mxCell>
        <mxCell id="DV4N-qlM-KyrqjE6VusM-28" value="" style="group" vertex="1" connectable="0" parent="1">
          <mxGeometry x="569" y="70" width="164" height="37.5" as="geometry" />
        </mxCell>
        <mxCell id="DV4N-qlM-KyrqjE6VusM-25" value="" style="shape=image;verticalLabelPosition=bottom;labelBackgroundColor=default;verticalAlign=top;aspect=fixed;imageAspect=0;image=data:image/png,iVBORw0KGgoAAAANSUhEUgAABLAAAAHCCAYAAAD/8zCiAAAABGdBTUEAALGPC/xhBQAAACBjSFJNAAB6JgAAgIQAAPoAAACA6AAAdTAAAOpgAAA6mAAAF3CculE8AAAABmJLR0QA/wD/AP+gvaeTAABfdUlEQVR42u3dd5xcVfn48c+dzSbZJDTpVXovYiIoWIiCxGQnAZS1/Oyo2ECsYA92xIblq2AF+4KE7J2NIGAsoAIBlS6iQlBCkR7SdnfO748zkQ4p987euffzfr3mFb98kzNzn3PuzL3PPec5IEmSJEmSJEmSJEmSJEmSJEmSJEmSJEmSJEmSJEmSJEmSJEmSJEmSJEmSJEmSJEmSJEmSJEmSJEmSJEmSJEmSJEmSJEmSJEmSJEmSJEmSJEmSJEmSJEmSJEmSJEmSJEmSJEmSJEmSJEmSJEmSJEmSJEmSJEmSJEmSJEmSJEmSJEmSJEmSJEmSJEmSJEmSJEmSJEmSJEmSJEmSJEmSJEmSJEmSJEmSJEmSJEmSJEmSJEmSJEmSJEmSJEmSJEmSJEmSJEmSJEmSJEmSJEmSJEmSJEmSJEmSJEmSJEmSJEmSJEmSJEmSJEmSJEmSJEmSJEmSJEmSJEmSJEmSJEmSJEmSJEmSJEmSJEmSJEmSJEmSJEmSJEmSJEmSJEmSJEmSJEmSJEmSJEmSJEmSJEmSJEmSJEmSJEmSJEmSJEmSJEmSJEmSJEmSJEmSJEmSJEmSJEmSJEmSJEmSJEmSJEmSJEmSJEmSJEmSJEmSJEmSJEmSJEmSJK2lxBBIerhw8qYTl/eMPRpqy8e/8+ZvGBFJkiRJ0mgbYwgkAYRvbDxpebPnqOVwPIHNA81PGhVJkiRJUhGYwJIqLpy0yzorJi59+7ImH0jgaUZEkiRJklQ0JrCkirr/61tu2B26jlnO0mMJbOB6YkmSJElSUZnAkirmga9utvGYZOw7ksBxwHpGRJIkSZJUdCawpIp44Js7bNI9NPQeEo4BJhgRSZIkSVKnMIElldzSU7bfJukafi/DQ28moceISJIkSZI6jQksqaSWfnnbbZPu5rsJw28hMN6ISJIkSZI6lQksqWSW/d822zPC8dB8I8FzXJIkSZLU+by5lUpi+de32YMmx4cRXgV0GRFJkiRJUlmYwJI63PKvbbUXofb+EHgViYkrSZIkSVL5mMCSOtSKb2z7jGaz+aEALyMhMSKSJEmSpLIygSV1mCVf2+bAGpzQbDZngIkrSZIkSVL5mcCSOsTSb2zz3KTJ8UCv0ZAkSZIkVYkJLKngWomrE2nyQqMhSZIkSaoiE1hSQS376jYHJ0nyqdAM+xsNSZIkSVKVmcCSCiQEkuVf26Y3JHwMmBIIBkWSJEmSVHkmsKQCCLOpLX/aNjOWf50TSdjXyuySJEmSJD3EBJY0isJsais23Oaly+ETwK5GRJIkSZKkxzKBJY2CcOrk7mXL73zl8oSPADsZEUmSJEmSnpgJLKmNwuw9xi572gOvWL7izo8lCTsYEUmSJEmSnpoJLKkNwld3HLe8tuJ1y8MDH0tgSyMiSZIkSdKqM4El5Sh8Y+NJy5s9Ry1nxfEENjcikiRJkiStPhNYUg7CSbuss3zC0jcub/JBYFMjIkmSJEnSmjOBJWXo/q9vuWF36DpmOUuPBTYwIpIkSZIkrT0TWFIG7j91i426V4x5ZxI4DljPiEiSJEmSlB0TWNJaeOCbO2zSPTT0HlZwDDDBiEiSJEmSlD0TWNIaWv71bT4Yhoc+RsJ4oyFJkiRJUn5qhkBaM6HJi8DklSRJkiRJeTOBJUmSJEmSpEIzgSVJkiRJkqRCM4ElSZIkSZKkQjOBJUmSJEmSpEIzgSVJkiRJkqRCM4ElSZIkSZKkQjOBJUmSJEmSpEIzgSVJkiRJkqRCM4ElSZIkSZKkQjOBJUmSJEmSpEIzgSVJkiRJkqRCM4ElSZIkSZKkQjOBJUmSJEmSpEIzgSVJkiRJkqRCM4ElSZIkSZKkQjOBJUmSJEmSpEIzgSVJkiRJkqRCM4ElSZIkSZKkQjOBJUmSJEmSpEIzgSVJkiRJkqRCM4ElSZIkSZKkQjOBJUmSJEmSpEIzgSVJkiRJkqRCM4ElSZIkSZKkQjOBJUmSJEmSpEIzgSVJkiRJkqRCM4ElSZIkSZKkQjOBJUmSJEmSpEIzgSVJkiRJkqRCM4ElSZIkSZKkQjOBJUmSJEmSpEIzgSVJkiRJkqRCM4ElSZIkSZKkQjOBJUmSJEmSpEIzgSVJkiRJkqRCM4ElSZIkSZKkQjOBJUmSJEmSpEIzgSVJkiRJkqRCM4ElSZIkSZKkQjOBJUmSJEmSpEIzgSVJkiRJkqRCM4ElSZIkSZKkQjOBJUmSJEmSpEIzgSVJkiRJkqRCM4ElSZIkSZKkQjOBJUmSJEmSpEIzgSVJkiRJkqRCM4ElSZIkSZKkQjOBJUmSJEmSpEIzgSVJkiRJkqRCM4ElSZIkSZKkQjOBJUmSJEmSpEIzgSVJkiRJkqRCM4ElSZIkSZKkQjOBJUmSJEmSpEIzgSVJkiRJkqRCM4ElSZIkSZKkQjOBJUmSJEmSpEIzgSVJkiRJkqRCM4ElSZIkSZKkQjOBJUmSJEmSpEIzgSVJkiRJkqRCM4ElSZIkSZKkQjOBJUmSJEmSpEIzgSVJkiRJkqRCM4ElSZIkSZKkQjOBJUmSJEmSpEIzgSVJkiRJkqRCM4ElSZIkSZKkQjOBJUmSJEmSpEIzgSVJkiRJkqRCM4ElSZIkSZKkQjOBJUmSJEmSpEIzgSVJkiRJkqRCM4ElSZIkSZKkQhtjCFRV8+bN2ziEsH2z2dwB2B7YPoSwQ61W+3pvb++ZRmjVNBqNE5vN5n61Wu2fwD+BfyVJ8s8kSf45ffr0+42QJEmSJGltmcBSqfX394+dOHHiLiMjI7slSbI7sDuwM7D9yMjIOo/++0mSEEL4oZFbLVsmSTIthPC//7Dyf6dpehfwtyRJrms2m9fXarXrarXa9YsXL76pr69vxNBJkiRJklaFCSyVQn9/f9eECRN2bjabzwD2TJJkN2APYPtmszkmSRKDNDo2BA4IIRzQSg4yMjJCT0/P8jRNrweuAf6aJMlfx4wZc+W0adMWGTJJkiRJ0qOZwFLH6e/vH9vT07NnCGHfJEn2BfYF9gkhTDRR1THGAfu0Xq8KITA0NESapncCf229rgAuq9frfzdckiRJklRtJrBUePPmzduh2Ww+B3hOCOHZwF5At8mqUtoYOLj1AiBN03uAS4HLkiS5bMyYMZc5U0uSJEmSqsUElgolTdMJtVptSghhZcLqOSMjI5sYmUrbADgUOHTlTK1Go3FTCOH3IYSLgYvq9fq1SZIEQyVJkiRJ5WQCS6Oqv7+/Z/z48c9JkuQgYCqwf7PZ7DYyejIhhG2BbZMkeQ1Ao9G4O03TPyRJclEIYf7SpUsvt0i8JEmSJJWHCSy11bx588YNDw8/+2EJq2cT6yFJa+NpQG8IoRegp6fn3kaj8VvgwuHh4QsPO+ywaw2RJEmSJHUuE1jK3cDAwHa1Wm1aCOElIyMjL0ySZKJRUc7WDyHMAmZ1dXWRpumiEMKFwLzh4eFfHXHEEXcZIkmSJEnqHCawlLn58+ePWbx48bNDCL1JkhwMTA7B8kQaVZsnSfJq4NXd3d3NNE3/HEK4IEmSRm9v78XWz5IkSZKkYjOBpUw0Go0Nms1mL3DY4sWLDwUmukugCqoGTE6SZDJwfKPRWJSmaSOEMGfMmDG/nj59+nJDJEmSJEnFYgJLayxN042A6cCRIYQXJ0ky1qioA20OvDlJkjePjIwsSdP018CZXV1d50yfPv1+wyNJkiRJo88EllZLmqZbAi8HXkoswF4zKiqRCUAv0DsyMrIsTdNfAT9funTpQF9f32LDI0mSJEmjwwSWntL555+/3rJly2YBRwLTHDeqiPHATGBmT0/PsjRNLwDOBM6q1+tLDI8kSZIktY+JCD2u+fPnj1+8eHEv8P+WLVv2EmCcUVGFjac1Mws4JU3TOcAZvb29v7UAvCRJkiTlzwSWHmFgYOBZtVrtqMWLF78CWM+ISI+xPvAG4A2NRuNfaZqePjw8fPrhhx9+k6GRJEmSpHyYwBJnn332ht3d3a8GjgL2CsEJJdIq2g6YPWbMmI+lafrbEML3ly1bdlZfX9/SKhx8CCEZHBx82dDQ0PmHH374vQ4HSZIkSXkxgVVRIYRkYGDg4FqtdhRwGC4RlNZGDZiaJMnUnp6eUwYGBk5PkuTUer1+fVkPeO7cuVPSNP1ikiTPHzt27N7AvQ4DSZIkSXkxgVUxc+fOXaerq+uVjUbj2FqttocRkTK3QZIkxwHHpWl6OfDVzTff/KdTpkwZKsPBpWm6ZQjhY0mSvInWLqTNZnNz4Cq7XpIkSVJeTGBVxNy5c3ep1WrvBF4XQljHiEhtMRk4fdGiRSelafqtoaGhbx5xxBF3dOKBnHfeeROHhobeGUL4SJIkkx71/97MrpYkSZKUJxNYJdaqTzM9hHAM8GIgMSrSqNgMmN3d3X1Co9H4MfCV3t7eqzvhg8+ePbs2efLkV69YseJzwOaP93eSJNncLpYkSZKUJxNYJbRgwYLuRYsWvbLRaHwAcJmgVBzjQwhHAW9M0/T8Wq325enTp5+XJEkhd05oNBpTQwhfAp7xZH+v2Ww6A0sPNxF4Wuu1YevPBOgBxj/q7z4ADAMrgLuBu1p/3t36b5IkSRJgAqtUzjvvvIkrVqx406JFi94DbGNEpMJKgBc3m80XNxqNq9I0/cKkSZN+MnXq1OEifLg0TXcCPh1COHKVDsYZWFW0GbAXsDdxN86nP+zPSRm9xx3Aza3XTcDfgSuBq4HFdoEkSVK1mMAqgXnz5m08MjJyzIoVK95BfNItqXPsBZy+ePHijzQajc8tWbLkR319faMy86TRaGzQbDaPB45jNXYmDSGYwCq3icD+wPOAA4kz8jZuw/tu0no969FDDvgncAVwEfA74iYCI3aVJElSeZnA6mBnn332ht3d3e8dGRk5huyeeEsaHTuFEL7b09MzuzUj67SpU6cua8cbL1iwoPu22257QwjhU0mSrHZiIkkSlxCWz95Ab+s1Begu0GdLgB1ar5WzBO8HfgM0Wq9FdqEkSVK5mMDqQHPnzl2nq6vr7SGEE4D1jYhUKlsDpyxevPj9aZp+oaur61vTp09fntebNRqNgxctWvQV1q5enjOwymFf4LXAYcC2HfbZ1wVmtl4BWAD0Az/GZJYkaXS8CHh/Tm3/qPXKy1uBl5awTx4k1thcCixrvZYCy4ElrT/vJJYxuL31v29rXVuoAExgdZD+/v5JEyZMeEcI4fgQwgZGRCq1rYCvjIyMvKfRaHx64sSJ38uyRtY555yze61W+2IIYVoGza3T398/qa+vz7pEnWdjYtLqdcTlrGWQEJcdPgv4HPAr4HRgDhaGlyS1z5bAoTm1/aecP/tOwMF2IRCTWguJ9ThvAm4g1uO8nlin0+RWG5nA6gD9/f1jJ0yY8PYQwkdCCBsaEalStgkhnLp48eJ3DwwMfGTmzJm/WJvG5s6du0WSJB9PkuQooCurDzlu3LjNgBvtro6xI3AM8CZgQomPswt4Set1O/At4GvE3Q4lSZKe8jKXmNDb6XH+fw8AfwYua73+RExqKScmsAouTdM68KUQwo5GQ6q0XZMkOStN00uTJHlfb2/v71fzu2RCkiTHhBA+RFxulalarWYCqzNMAT4OzCDOVKqSTVvH/j7gu8BnicsCJEmS1sQ6wPNbr5VuItblnA+cj6UMsr3nMATFNDg4uH+apr8HBohPyiUJYL8Qwu/SNE3nzZu3w1P95RBC0mg0jkyS5JoQwufIIXkFkCSJdbCKbQ9iTahLiYXZkwrHYiJwLPAP4BRiYkuSJCkL2wKvJ5Yv+DdwCfAh1q7erFpMYBVMo9HYPk3Ts5vN5p+A5xoRSU+gd2Rk5No0Tb8wb968x01KDQ4O7t9oNC4KIfSHELbN88OEEExgFdNmwPeBK4k79iWG5H8mEBNZNxBnZY01JJIkKUM1YD/g08S6WdcAs4HtDc2aB1QF0N/fPzZN03eFEK4EDjciklbBWOC9IyMjf0vT9LUhhAQgTdNt0jQ9o9ls/hE4oE2fZTO7o1C6gXcBfyM+BfT3/omtC5zcurA80nBIkqSc7E4sZ/B34Fzi7sldhmXVeUFbAGmavqinp+evwFeISxskaXVsBpzeaDQuStP0m8SkxWto42wblxAWyrOBv7R+U9Y1HKtsJ+Iyy5S4c5QkSVIeasQdKucSSxq8D5hkWFYtcBolc+bM2TZN07nABcCuRkTSWjoAeCswvt1v3Gw2nYE1+nqAzwEXEZ/wac30EmdjvcVQSJKknD2dOBP8ZuLsrA0MyRMzgTUK+vv7uwYGBt43ZsyYa4jTBiWpozkDa9TtQSzQfjxORc/C+sCpwBzgaYZDkiTl7GnE+lgLW3/2GJLHMoHVZo1GY8+enp4/JElyMrGArIplOITwoGFYLfcbAgEmsEbPa4HLgD0NReYOIy7HdFMVSZLUDpOIM7GuB15lOB7JBFabLFiwoHtgYOBjIYTLiTsRaPTdH0L4XQjhayGENyVJMmXSpEnrzJw586eGZtX19va+J0mSpwEHhxDenyTJT1tfuE2jUykbzZ8/f4xhaPsFzlnEbZp9SpefrYH5wLsNhSRJapNtgB8DvwF2MxyRNxtt0Gg0Ji9atOh7SZLsbTRGzTBwTQjhklqtdkmz2bzkiiuuuG727NkmWTLQ29t7D3Bh6wVAf3//pJ6enmckSbJvs9ncL0mS57e+iFVOtfvvv38T4FZD0RZbAecAkw1F266XvgRMAd4ELDUkkiSpDV4AXAF8Avg8MFL1CzLlpL+/v2vChAnHhxBmE7c0V/ssIy6p+S3w+6VLl/6hr69vsWFpn1a8L2q9AEjTdJskSZ7fbDaflyTJ8/BpQql0dXVtjgmsdjiQWJtpY0PRdq8CtiUuLbzTcEiSpDYYD3yGWD/7NcCNVQ2ECaycpGm6DXBGCOEFRqMtRoDLkiT5VZIkF06YMOHSqVOnLjMsxVKv1xcCP2q9OPvsszfp7u4+kPhkYRqwi1HqXM1m0zpY+esF+ineksER4tLhvwH/bL3+A/wXuKv1GiHOXFr53TyJ+HBnHLARsCGwCXGm5vat1x7EJXxFcgDwe+L21zc7JCVJUps8G7gceCPwiyoGwARWDgYGBvqAb+EWmHm7BTgX+FWSJBe2lrGpgxxxxBF3EGeSzAFoNBrbhxBeAkwHDsKNDjpKkiSbGYVcvRb4bkF+u+8lznD9NXG261+BJavZxsNnxd72JH9vY+CZxMTRC4H9Gf1ZzbsAFxOTWNc4NCVJUpusC5wJfA14L7FUTmWYwMpQf3//pAkTJnwthPB6o5GLQFz/mwJpb2/vn5MkCYalPHp7e/8JfAP4Rn9/f8/EiRNf0Gw2Vya0djRCxZYkiTOw8vMm4DQgGcXPcAvxad+ZwCW0rwbDncB5rdfHiTO3XgwcSZyRNmmU4rElsbDqC4GrHKKSJKldl93AscDOQB/wQFUO3ARWRtI03TVJkl+EEHY3GplqhhAuSpKkHzinXq//x5BUQ19f31LiDLtzgXelabpPCKEvSZI+TGYVlTOw8vE64FRGJ3k1RJwh+S1isqYIDw0WA2e3Xj2tC7e3EWdmtdtGwAXAVOBah6okSU9oHvBgQT7LBkAXcTbTWGAisc5UD521imoacUb8dJ58NntpmMDKQKPRODKE8N0QwjpGIxNN4OIkSc4cM2bMWdOmTVtkSFSv1/9KXKb04TRNn/mwZNZ2RqcYQgjOwMreK4jLBmttft8HibMhv1zwC6KlwOmt12Tgw8QC6+1M9m1CTGK9APi7Q1aSpMd1DLFGZtGNI9bjXPl6OnEDlx2AfYCi3fPvC/yBODu99MXdTWCthQULFnTfeuutnw8hHGc0MvG3JEnOCCH8qFXsW3pc9Xr9CuJy0hMGBgaelSTJy4FXA5sanVFlAitbBxETM11tfM/lxJoKn6fzdtm7HDiidXH5SaDe5rE/j1iny90JJUnqXMuJD6Qe76FUjZjI2h94PvHh1c4F+MzbAfNb147/KHPnmMBaQ3Pnzt3itttu60+S5ECjsVbuAX5Sq9V+OGPGjEsMh1bXzJkzLwMuW7BgwQcXLVrUCxxFnE7bZXTayyLumdqNuERubBvfswEcV4ILn78St5l+IfAVYK82ve+OwCBxOeGDDmFJkkqnyUPJrR+1/tv2reuOWcSkVm2UPttWxCTWVEqcxDKBtQbmzp27d61WS0MI2xiNNXZ5kiSndXd3//jQQw/1Ql9rbcqUKStr9cyZO3fuFl1dXa8JIbyZ+JREbRBC2DyEkLi5wlrbiDibp101GP4DvJWYwCqTXxOXFR4PfIS4JCBvzwJ+QKzL5XkgSVL5/ZP4wOwrxCWHrwPeSFx22G5bEze9eQ4lnRFec7ytnoGBgVm1Wu3i1uDU6lkMfBN4Rr1en9Lb23uaySvlYdasWbf29vaedPnll++cJMkhxJ3TRoxM7sYNDg6ubxjWShfwszZe9HwP2IPyJa9WGgI+BTwTWNCm93wZ8AGHsiRJlbOQWMZgR+JuyX8ahc+wA5ACE8oYYGdgrYY0Td8FfAkTf6trEXBad3f3V6dNm3a34VC7zJ49u0ksrnzBwMDAdsDRSZIcDaxvdPIxPDy8OXFpsNbMZ4EXteF97ifu3PeTisT1WuLTyI8AH23D7/hngL8Qn4JKkqRqGQHOar2mE5Naz2zj++8PnEFMopVqRriJmFWwYMGC7jRNv02cFmjMVt2fgCMnTZq0Tb1en23ySqNp5syZ/5o5c+YJw8PD2yVJcgJx2ZSy/lGp1ayDteZmAe9rw/tc07qI+knF4jsMzCYWen+gDddXPwS2cFhLklRp84ApxKWFt7fxfV/apuvK9t5rOJ6eXJqmExYtWnQO8CajscouSJLkhfV6/Tn1ev2sqVOnDhsSFcXhhx9+b29v70mbb775dkmSvIZY8FkZSZLEnQjXzCbAqUCS8/ucBxxIyXeoeQpzWzH4V87vszGxHlbi8JYkqdICcUbUrsTyDe3yGWJh+dIwgfUk5syZs36SJL8iTvvTU5yUSZLMDSHsV6/XD+nt7Z1vSFRkU6ZMGert7f1Rb2/vvkmSvBS42qisPXciXLOwAd8HNs35fc4AeoH7DDlXEZcU/iXn9zkEeJfhliRJwL3EHdNnAf9tw/uNIc64X78sATSB9QTmzp276ZgxY+aHEA40Gk/pgmazuV9vb+9hM2fOvMxwqKMyB0kSent7z+7t7d2buAXulUZlzYUQnIG1+t5O/g9KPg+8nriMTtHtxK2mL8r5fT4L7Ga4JUlSywCwL+0p8r4lcEpZAmcC63HMmTNn21qt9nvgGUbjSW/8Lwam1uv1Q2bNmrXAiKjDx3Oo1+vp5Zdfvm+SJH3ADUZljTgDa/VsAXw65/f4CnA8JSvimZF7gUOB3+f4HuOJywW85pIkSSv9m/gg7edteK/XEh/Udzwvph4lTdOdxowZczGwk9F4whv9a0MI03t7e59br9d/Y0RUJrNnz2729vaeOWnSpD1CCG8F7jQqq8UZWKvnVGC9HNv/BvBuw/yklrQu6q7I8T2eDbzFUEuSpIdZBryK9syQ+jowodMDZgLrYQYHB58OnI+7Bj2Ru4DjJk6cuM/MmTN/aThUZlOnTh2eOXPmqcPDwzuHEE4CVhiVVWICa9W9lFiTKi9nA8ca5lVyLzADuDnH9/gczlCUJEmP1ASOI5YcyNPWwAmdHiwTWC0DAwPbNZvN3wFPNxqPMQx8afz48TvU6/VT3FVQVXL44YffW6vVLsj5xrZMvEFfNeOAk3Js/3LidPGmoV5ltxFrkd2bU/vrAZ8yzJIk6XF8CPhazu/xfmD7Tg6SCSzgnHPO2TpJkguAbYzGY/y+Vqs9s16vv/eQQw5x5ypVSqPR2C1N08EQwvm4rHhVbdDf399jGJ7Se4Edcmr7buLsrgcN82q7FngN+dULewMwxTBLkqTHcRwwJ8f2xwMndnKAxlR9hKRpuiUwnw7PRObgDuD9vb29P0ySxMK/qtr3wkbAR0MI7wC6jMjq6e7u3hS4yUg8oU3Jbwp3k1hLwRmDa64BfBl4Tw5t14AvAAcZZkmS9DjXca8G/gDsk9N7vJK4XPHaTgxQpWdgzZs3b93WheoOniuPcGZXV9ee9Xr9DJNXqpL+/v6eRqNxPPAPYu0gk1drYMyYMdbBenInAOvk1PaXgfMMcSZ99Oec2n4BcIghliRJj2MJ8WHk0pza7wI+3qnBqWwCq7+/f2yz2TwLeIbnyP/cliTJS+v1et/06dPdeU2VEUJIGo3GkT09PdeEED4HrGtU1op1sJ7Y5sDRObX9r06+ICmYIeJyv6Gc2j/REEuSpCdwLXB8ju0fCezaiYGpZAJr9uzZtZ6enjNCCD4BfchPhoeHd+vt7T3bUKhK0jTdb3Bw8PchhH5gOyOy9kIIzsB6Yh8G8qgRFoA3Yt2rLP0V+GJObT8HeIkhliRJT+DrxNVieUiAd3ZiUCpZA2vKlClfCCG83HMCgPuTJHl/b2/vaYZCVXLOOeds3dXV9Wng1SGExIhk+IuYJM7AenybEJNMeTgN+I0hztxsYBawWw5tnwD80hBLkqTHEYA3EWdjPS2H9l8PfBS4p5OCUrkZWGmaviOE8G7PB0iS5OLh4eF9TF6pSvr7+yelaTq7q6vrBuJuYyavsucMrMf3dvKZffUf8p1mXmXLgbeSz66Ezwf2M8SSJOkJ3A58Jqe2JxKTWB2lUgmsuXPnHgh8yfMAQginbbbZZlMPP/zwm4yGqmD27Nm1NE1f29PTcyOxTtB4o5IbE1iP1QO8I6e2PwTcZ4hz8zvgzJzafq/hlSRJT+JrxA2m8vDGTgtGZZYQnnPOOVvXarWzgbEVPwEeSJLkqHq9fqbfBaqKRqNxcAjhi8DeRqMtXEL4WK8CNsqh3euAHxve3H0MOCKH66YjgK2BWwzx4+oCng5sAKxHTARPANbnkbNnlxOXQNzdev0buN/wFfb3YctWP04k7si6Lo/c9fcBYBlwJ/Bf4gyEewxdYSXAFsDGwKat8/XRm+EsI+6otqR1vt4OLMSHL9KqWEF8+P6jHNreE5gMXN4pwahEAqu/v7+nlbzapNK/LklybZIkh8+YMeMGvwdUBXPnzt2lVqt9MoRwpNFoK2dgPdZbcmr3o8CI4c3d34AzyP5J5RjiboefqHh8a62L6AOAnR722p41f/B4D3AzsXbIlcSi/JdgIqRdNiUuk90d2AXYudWna7rL7/3A34EbgWuAS1sv+7O91gX2B6a0bnp3BXZgzWe1309MZN30sHP0UmKCS9JDfgq8B3hmDm2/ARNYxdLT03Nq64u2yn5Zq9VeMX36dJ9IqvTOPvvsDbu7uz9GrDk0xoi03Sb9/f1dfX19Jlaivcin1tHlgDvHts+JwP8DxmXc7puAT1OtRGRCTFgd1Hq9ANgw4/fYoPV6BnEGJECTmPz4DXFnp98Qn2xr7a3b6scXAS9s9W+ScfuTW6+VAnEW6rnEDRF+T5zdo2ztCbwUeHHrt2xMxv26Z+vV+7D//i/g18Tl2xcCw3aDKq5JrIV1Vg5tHwEc23qPwiv9jV2j0XhjCOE1VR7tIYTT1llnnXdMnTrVL3+V2oIFC7oXLVr09taN5npGZPR+W8aNG7cRPkFd6c05tftR8ikurse3kLjb4zEZt7s1cEjrJjxrhwCfzaitl7P2NTi2I26e8VrirI12qxETynu1+vF+IAV+0LpZbjrMVzueLyTOMJ1F+8t0JMQZXrsTZybcBwwQZ0te2GHfjz8lzlBbG3OIyfAsbAgc1Tpf9xyFeGzXev+jiMtIfwF8B1jgaacKm0vcuGfLjNvdHHg28IeOuMkocw+nabpTCOGUCg/ykSRJ3l6v191lUKWXpml90aJFXx6lmyI9+q6mVtsME1grf2dfnkO7VxJnHKi9TibO7OzKuN1Xk08CawMeOWNlbazpDpoTW+fA64DnUaydX9clzqr7f8QE5TeAU7Euz1PZgbjk5PU53EitjfWICZfXAFe1ztefAUMdENPdWfs6nVksAdoR+CBx1mJRNrvZCDi69TqfmJSf72moChomJnI/nkPbh9MhCazS7kK4YMGCbuCHwKSKDvDlSZK8sre31+SVSm3u3LlTBgYGfkt86mryqig/LrWadbCiF5FP/cVvGtpRcQswL4d2DyMmespkfeAjxNo23yXWQ0oK/Hm3AU4iJrI+zZrXaiqznVrX1n8DPkyxklePthdxJtaNxNp1NbvvSW1BnGF6bSteRd2p+RDibMmLgX3tNlXQt8lnSW29Y+4xytqzixYt+hSxyGAVLW42m/Xe3l53GlRppWm65cDAwKm1Wu2SJEmeb0SKpdlsmsCK8ph99QDwE0M7avJIHk4EppckPjXiEsG/AZ8kn90387Qu8CHgn8C7sI4iwLbA94jJjVeT/QzEPG1DTKBeRpwBqEca0xrn1xGXu3d3yOc+gLic8FTiTpZSVfyHuJQwa7sQSxp0xEVG6TQajanA+yo6qO9qNpvPnzVr1vme3yqj8847b2Kj0TgeuD5JkrfgU9Wi2swQMIY4syZrPyTW7tEofQ2x9rWgHk8ZdkvdBfgTcDqdv/PzhsBXgL8A0yo61ie1YnADcclgJyfzngn8lrhMtKqrMx5tZ+CPrT7uxBmHNWL9taup7qQFVdPPcmr34E458Uulv7+/J4RwWkVvau9JkuTQWbNm/dnzWmW1YsWKF4YQdiZuj27B3YIKITgDKz7t3yCHdr9laEdVk7jUJmuHdHiC4I3EGjzPKll/70GsN3c61Zrp8WJiHal30Tmzcp5KQqxhdyVxBk+VvbZ1vpZhl/ZtiMnJN/jzpIr4FfnsoGsCazSMHz/+48QChFVzZ7PZPKi3t/dyz2mVWb1eT+v1+lH1en3PpUuXrtdKEhxH3Gr5DiNUkLuEJHEGFszIoc1LWzeVGl2nAyMZt7k+nZn8SYDZxGVaE0vc569tnXvPLfnYXp+4LOtc4tLBMtqOmPCYTfUeeHcBX2h9h5VpJto44jLXL1PsWntSFu5vfYdlrSOWWZdqXX+apvsQt9GtmnuBQ2bNmnWl57OqpK+vbzFwUet1CsDcuXO3qNVqk0MIB9ZqteeGECZT3GKkZeYMrHwKYs4xrIVwO3G3nqwv9l5MXNLTSTfDPwJeUZF+fzpx97MTiTuhjZTs+PYHfkGxi7NneQ/0ceAZxLpeiytwzOOAnwOzSnyMx7X+fLc/Uyq5BnHmdpa2Jm7ocGvRv7xLYfbs2TViYdXuig3epUmSzOzt7f2r57EEs2bNurX1xZtC3JH0tttu2zuE8FxgcpIkk0MIuxup3FU9gbUdsb5I1uY6tArjHPJJYJ3YIcdfA35AdZJXD792/iSwX+vYl5TkuF5PXJ48rmqXDcSHYDOJO1CW1QTgbODQCvTpccSl3u/1Z0olltJ6eJ+x/VrXN4X+ES6FKVOmvCOE8JyKDdxh4OW9vb2/9xyWnvC7YYhY5+F/y2sHBwc3azabzwImt14Hkk+toiqregJrag5t/p24U5SK4Wzgixm3uX/ru+ieDjj+zxNnrlRVHTi/9efdHXwcXcCngeMr3Jf7EDcfOJRyLtHupjrJq5XeA1wPfNufKpXUv4Abyb50kgmsdmg0GhuEED5ewYH79nq9nnr+SqtnxowZtxGfXKQA/f39XePHj981SZKHJ7T2xR0O18aEuXPnrjNr1qwHKnr8eSSwznZYFcpNxGLQe2ecTJjaAX39SpzdALEQ+EXEXQo7cfbOxNaNysF2JZsDF7b68ooSHVdCTOIcWsE+/SqxbqSrVFRWl5F9Amvvoh90KRJYIYSPELc7rpIv1et1nypIGejr6xsBrmm9zgCYO3fuOrVabR8eSmi9gM7fFr69PzBjxmwOVDWBdVAObQ44qgrnnBwu9g6l2Ams7chnF8ZOtRtwces34p8d9LknEB/iTLUL/2djYhLrhUBZdvQ+EXhdRftzPPAT4oySBx3eKqHLiA+UsrRn4e8vOr3XBgYGtgPeUbHBet7SpUs/4Dkr5ac1c+gxBeK7uroODCE8t1VLawrVqxeyykZGRjYHbqjgoT8d2CrjNhcTnySrWH4NfCzjNou8y11CrJM0ya5/hK2I25ofQGfshjsBGCSfRHunWx+YBzyfuGy7k9WBD1e8P3dvxeBDDm2VUB7XhdsA6wH3FfWgOz6BlSTJSRW7gbyhq6urrzVjRFIbtQrEn9l6WSD+qb+fN6vooe+fQ5t/JNY9VPEuHlcAYzNsc1dgXeI22UXz/4iF5kfDcuIsioSYQCvapj07EHcJPRhYWuAxO4G4e9VBBfgsgbiTdmj16/qtP0fbZsQk1rOBuzr0u2kb4ozydpdCeAAYav3vrtaN8Gh7N3EZ5b/8yVLJ/Ll1bZhlTichJn4LuyNyRyew0jTdD3hZhQbp0mazeWS9Xr/f81UafY9XIP7cc8/dfGhoaAoPFYh/buuivHKSJKlqIfc8ElgXe8YV83e5dQGZZZ/XgCnE2V1FMo64+15ehom1h64CrgWuBv5BLJD+AI9N4I4l1nDanJj027V10f0MYI9RitEBwI9b16bNAo7XGtBPe5cNNom14n7X6tcbW6/biEnJRxsPbEms67Jjqz+fTz67uj6ZHYFfEBO2Kzrse2nlDqF5XHvcDvwB+AsxIbTydRew7AluhjcjJtR2bX23HUCsM9quZOV44qYTR/qTpZJZQix/sk8O338msHLyEYrxpKZdjp01a9aVnqtScU2bNm0RFoiPdy3NZlVnYD0rhzZNYBXXRWSftNyP4iWwvg5sm3Gb9wHntr4vf8nq7ea3ovW6h5gYebinAy8BZgCH0N6Z+ocTd/X7YAHH6mdaMcnbCuIsrx8D81m9XTWXEROX/wDOe9h/34JYYP21xIRWO67/XwB8ATi2w76T3kl2ScqR1nfRz4HfEpOPqyMAi1qvS4DTW/99q9a5cjTtSTi/DNiLcu4yqWq7luwTWNsW+YA7NoE1ODi4V7PZ7K3Q4PxJvV7/jueo1FmerEB8kiQHtpYf7k8sHlsqFZ2BlbQukrM0TNziXcV0MdnvyLdXAY/z2Rm2tRD4EnFZz5IcPuvNxFpd3yJuvvEG4BjizJ52+ABwPsVKQr6q9bnydEurX89g9ZKRq+JW4Hut17bAW4g1cNfN+ZiOISZuftEh30dbkM1MyZuJ9T9/Rkw+Ze3fwNdar0OAzxIf8uXdl2/xJ0slc2MObW5b5APu2ARWs9n8ENWZfXVrd3f3MZ6fUjk8qkD8SVDOAvEVTWBtRfbLNq4kFnFXMeUxzX6vksZqIbHo/U94qE5O3u5ofc+eArwe+AT5PzCoEWea7EP2iZw18SzgOzleN99CnHX2fdqz3O4mYlHuk4mzo95Dvoms7xBnD/27A86xk9cyFjcAnwN+1MZz9Hzi7o9vAL4MrJPT+/w/4ISCnJNSVvJIYG1X5APuyATWvHnzdhgZGalS7as3T5s2zS9bqcTKWCA+hFDFJYR5JB5c8lBstwF3km1SZFdijacVJYlRIM62eh+xntVoWEackfUz4ETg7TlfB2/VOuaXjnLs1wXOAnpyaHuYmBj8OLHAfrvd0+rL04Avkv128iut3+rL6a2xXFSvY803lFhKTO5+kfYlrh6uCXwX+E3rOmjfHN5jAvCa1piVyuIfObS5ZZEPuCMTWM1m8/2UYAfFVZEkyXd7e3vneW5K1bIKBeIPJBZCnVDgw6jiDKzdcmjzOs+IwruWWC8nK93EIqrXliA2N7RurIuyDPZe4F3EGVI/A3bK8b2OINZsOmMUj/cLxALaWbuemDD6SwH6dBFxieT3icXLt8jhPaa1xvEPCnyurems7d8CR+V0I7wmN+MvIC7ZPCSH9g/DBJbKJY8ZWJsW+YA7rojw3Llz1wkhvKoiA/LuEMIJnpeSIBaIr9frab1en12v1w9ZunTpuiGEPYHXhRBOS5LkWoq189WG/f39YyvWTU/Poc1rHf2Fl0cfbVOCuJxLrJ1VxBpuVxAfBvw85/c5GVhvlI7xhcCbcmj3nFa//qVgfXo+cdfCX+bU/knkX3Or3U4jJor+UaDP9ADQ2+rPrD0P2NCfLJXI7cD9Gbe5HnH3zkLquFlMSZK8hvzWRhftWD/Y29v7X89LSY9nFQvEPxvYaLS+xsaOHbspsT5KVWydQ5smsIrv2g4ZS+30eWKdopECf8YHgFcQZ7qeRD41ojZpxeH4Nh/bOsQlWVkf08eJS82K6k5i8uNkYm2srPvyA8Rd0DvdEPBmHtoVsGhWAEcSN8nIcpfCLuBQYh0+qSz+Q/bJ9U2IdSsLpxMTWG+qyEC8YsmSJd/1fJS0OopWIL5Wq22GCay1sYxYsFjFZgLrkT4MfKaDPu/JxKWF3yKf1QnHEZNJN7TxmD5DtjtJBWINsy91QH82iTuD3kb2icn3EGctLezg83OEWAvq5wX/nPcRl6leSrazQV6ECSyVSx4TXjbCBNbaGxgYeDb5FPUrnFqt9u7W7ApJWitPVSCeWE9r+5y+y6pWB2urjNv7O8WewaLobzm02akJrI/SWcmrlb5NnPXxXeIsjSyNJc5IO6xNx7IL8NaM23wvcYe4TnIysTj51zJss6c1vl/doednk7jb38875PNeRZz1d1KGbT7LnyyVzJ05tDmpqAfbUQmsJEneXJFB+MsZM2b8znNRUh4er0D83Llzt6jVapPJvkB8lXYiHEeccp2l/zhiO8JtxERjlomPTkxgfR74VAf34+nE+jhfzKHtWcD+wCVtOI5PZXyN/1U6L3m10teJBYmzXPb3KuJMtCs6MB6fAH7YYZ/5K8Tljjtm1N4exCW2DyCVQx4zsApbsqljElgLFizoXrRo0eEVGICBcqytl9RBWrO0bgVSgP7+/q7x48fv2lpyeGCtVntuCGFXVnN5TQihSjOwtib7ejOLHJ0dYaR1AZnlzj2dVsT918RaT53uS8DuxF3ZsvZ+4GU5f/4pwEszbG+Q7GtJtdvHiMsps5o1lRCXU3baplK/BD7Zgf23gjjr7XsZtVcjruhxsoDKwgRWEd16660HJ0myQdlHXwhhzsyZM6/wPJQ0mh6vQPy8efPWHRkZ2Xs1C8RXaQZWHjNmTGB1jkVkm8BamRANHXDstxCLoZdlues7gX2IyaAsHQbsRFwanJfPkV0i/Q5iIq/T+zUQl1ROBnbLqM0jgQ8CN3fQ99OrKdZOxavjp8RlhBtn1N6emMBSeeSRwCrsjqsdk8BKkuRlFRmAJ3sOSiqi6dOn389TF4h/FrHey8rv7irNwNo4hzZvc+R1jEXAMzJsbzyxBkXRl7k0iTNR7ixRXy4jFrn+M9kWj+4izmZ6W06f+wXEAtVZCK0Y3F6SPn2QWBD8ErLZxGQMcCyxNlgnOA64u8PPyR8B786ovR2RyuOeHNocW9SD7YgE1vz588csXry4XoHBd9HMmTP/5DkoqVM8ukD8eeedN3F4eHhys9ncH3hOCKFK4ZiQQ5u3Oso6Rh6z5XoofgLrO8SkdtlcT6wXlHVB+tcRi1LfkcNnfleGbZ0O/KpkffpX4oPirEp1vLk1Ru4r+HGfB/SXoP/mYgJLejzLc2izsHmijkhgPfjggweRz5PtovmS55+kTnbooYc+SJyWX8Wp+eNzaPNuR1XHuCuHNicU/JhvB04ocZ+eTFwqluUO2D3EmU1ZF4rfCsjqYe8DlKOe2eP5LHEp3bYZtLUO8EaKXeC+SZx9VQYXAfeTzdKmnfzJUolUKoFV64QeCSFMq8DAu23SpEmp558kdaw8kg1LDWvHyKOvegp+zCeQz9KFohgmFuvOWh7Fv4/O8IbjM5S3/t4S4AMZtvfqgh9vP3E2YRmM8LDdk9fSVv5kqURW5NBmd1EPttYhnTK1AgPvB1OnTh32/JOkjpVHAmuZYe0YyzpkTGXlH8SaNGX3a+D8jNt8JrBHhu2NJS5ny8I9wDdK3qdnAVdn2Je7FfQ4m8CnS9Z3CzJqZxLFf0Agrao8ZmAVNk9U+ATWnDlz1ifuBFN2p3vuSVJHy+Ni2ARW51jWIWMqK58kzlCqgg+S/W6QL8+wrcPJbgfMb1L8umtrK9DaiCQjRd1o6kKyS9QVxb8ybGsjpHLIYwZWYa8/C5/A6urqegFx15Yyu7Rer1/vuSdJHc0EVrXlsYSwqDOw/gn8uEJ9eznZz8J6FZBk1NaRGbUzBHytIn36M+A/GbX1ioIeYxkfji/MsK2NkcpheYe0mYnCJ7CSJKnC8sE5nneS1PFMYFVblWZgfZvqzL5aKetldTuQzQqDHiCrWrHnArdVpD+HgR9m1NbuwN4FO777S3p/8d8M29rAny2VRDOHNk1grYUDyj7iQggWb5ckPe5PhCGodF8lBTzOYeCMCvZvg2yXLwG8KIM2XgxMzOjzVK2cxfczPG9fUrBjGyQWrC+bBzNsa5w/WyqJPMaySwjXRH9/fxfZFrksohtnzpx5jeedJHW8Ku5Cp3z7qog3oL8Ebq1g/zaB72bcZhYJrFkZfZbFxCRdldwA/Dmjtg4q2LGd5+/sqNz0S6Mhj7HsDKw1uhLs6dmJYu/Ak4XzPeckyQvrJzDesHaM8R0yptbWTyrcx2dm3N7ziTsIrqkuoJ7RZ/lNkW9YcvTLjNp5LsXZdj6U+P4iy5muY5HKwRlYBVL63QdDCL/3nJOkUjCBVW1VmIE1QrUfvN1Atru6TQT2X4t//0yy20mtqv16bkbtTGr1RxFcTzVnSRbhpl8qy1h2BtaaSJJkr7KPtmazeZHnnCSVggmsaqvCDKxLgLsq3s9ZF8Zem82K9svwc8yvaH/+iezqKr2gIMd0uV/HnX8fLK0GZ2AVyJ4lH2w3H3bYYbd4zklSKeQxW8YaWJ2jCgmsX9rNzMu4vbWZtZNVAmsZcF1F+3MYuDKjtp5XkGP6q6epVCnOwCqKEMLTSz7YrvR8k6TSyCPZ8DTD2jE2yqHNBwt2jL+xm7k8435Zm3IZ+2f0Ga4iJnKqKqtC7nsX5HhMYEnVsk4Obd5X1IMt+gysLUs+2Nx9UJLKI48ZWJsb1o6xWQ5tFmkK/3CGN/qdbIi4lDIrTwfWX4N/tz6ws9ejmcjqgfLWwHoFOJ4bPU2lStkkhzb/W9SDLWwCa968eePI52lmYSRJYgJLksrjzhzaNIHVObbIuL1lwAMFOr6rKd6MsNHyuywvB1mzmTtTWv82C1UvZ7Eww77cY5SPJWABd6lqsk5gBeCeoh5sYRNYw8PDW2T4w1xIzWbTJySSVB553ASawOocWffVQrLdMn5tXWoX/88VGbe3JssId83w/f9d8f7M8vhHu37vnRS4do2kXGSdwLqXAi8rH1PUD9bV1bV1s9ks9UhrNpv/8XyTpNK4hZhwyPLhyxaGtSN0kf2s8aLNirnWbv6frGfQ77IG/ybLOrE7AUdWuD+zXPY32gms2zw9pcrZOOP2/lvkgy1sAqvZbJa9cG1zq6228kdGkspjOfHpd5ZPwpyB1Rk2JSaxslS0WTF/s5v/5ybicsqJGbW3JjVfs0xgvc8uzcxOo/z+S+wCqZLXIGW+/niEwi4hTJJkfMkH2n+nTJky5PkmSaWS9ayZHSn+hitasxk0T2VhwY7x73bz/zSB6zNsb6s1+Dfb2g2FtM0ov/9Su0CqnKwTWIWuo1fki+IJJR9o93uuSVLpZJ3AmuCNakfYvQPG0toYIs460kNuzrCt0Z6BpeyYwJLUTlsA65T4+uMxCpvACiH0lHyw+QMjSeWTx4/+7oa18MqewLodGLGbH2FRhm1tCnSvxt/vIfuaJ8rGJGA0y6CssAukStk1hzadgbUmKpDAWub5Jkmlk8eyLxNYxVf2BNYddnGuF/g1YLPV+PtPo+Q7dXe4bQyBpDbZLYc2/1HkAy5sAqtWq40t80hLksQnJJJUPtd1yMWJsrVHxu0NUayaU7fbxY+R9UY866/G3+0x/IW2lSGQ1CZ51OAsdM3Lwiawms1mqRM8zWZznOebJJXO1Tm0uZdhLbRNyX451w0UaynQf+3mx1iccXurk5SaYPgLbT1DIKlNsl5COEzBa14WuYh7qbeBTZLEp2eSVD4LgfsybnMfYl0VFdMBObR5lddkhZd1KYjV2X3bBFaxrWsIJLXJnhm3dxNxFnhhFTaBlSRJ2Yucm8CSpPIJZD8Lawywn6EtrDwSWFcW7BiX282PkfV1ak9Of1ftZwJLUjvsCGyecZvXFf2gnYE1enyaLknldGkObT7XsBbWcztkDK0N63Y+VtZJvQk5/V213zqGQFIbPD+HNv9S9IN2Btbo2ai/v3+s550klc4lObR5oGEtpB7gmRm3GYDLC3acQ3b1Y3TnMJZUDtbAktQOz8uhzauKftBFTmDdW/IBV5s4ceLmnneSVDp5JLAOIC4lVLE8C8j6YdT1QNGugXzg9lhZb8YzvBp/917D7/2VpMrLYwbWX/2CXUMhhH+XfcSFELb0vJOk0rkJuDXjNicBUwxt4UzNoc2LC3ic4+3qx8g6gbU6Kw/uNfyF1jQEknK2FbB9xm0+APyj6Ade2ARWrVb7D3EafWmFELb13JOkUvpNDm3ONKyFc1gObf6qgMc5zq5+jKyTequzq+G9hr/QTGBJ6sTrj0uBkaIfeGETWNOnT18O3FHygbeX554kldL8DrlY0ZrbFtgn4zZHgAsLeKwWDX+sp2Xcngms8jCBJSlvL82hzT92woEXfY122ZcR7u25J0mllEcCazdgF0NbGLOAJOM2FwB3F/BYN7G7c4/J6iwhfBB3hiwyE1iS8rQR+eyA/KdOOPiiJ7BuKfngM4ElSeX0D+DvObR7mKEtjMNzaPO8gh7rpnb3495AZGl1d9/OMtH5EmIy1lc2r/d6ekjK0WFkv7FPE2dgZeL6kg++rc4991x3IpSkchrM6aJFo29j8nn6eX5Bj9cE1uOPgSytbtmMhRW6H5AkPeTIHNr8M8WcAd5xP1h/KfvoW7FixUGeg5JUSo0c2nw2sKehHXWvA7oybvN+4JKCHu9GwFi7/RG2zbCt5cB/V/Pf3JTh+yd2pyR1hG2AF+XQ7gWdEoBCJ7CazeZfKjAID/I8lKRS+h1wXw7tvsXQjqokpz64ABgq8PXi9nb9I+yYYVu3svo7b/8rw/cfY3dKUkc4muwfoEExN5B5wguSwlq+fPmNxEKV5b0KTpKpnoeSVEpDwJwc2n09sI7hHTWHADvl0G5/wY97V7v+f9YHNsiwvVvX4N/clOH7b2CXSlLhdQNvyKHdxcDvOyUIhU5g9fX1jQBXlXwg7pSmqReFklROP8+hzXWAVxjaUfO2HNpcQj5LTrPkDpgP2THj9kY7gbWxXSpJhVcH8qiffS6wrFOC0AlFGy+vwGA83PNRkkrpAla/OPOqeIehHRVbADNyaHcuxZ9xvrvd/z9Z7yK9Jrtu35jh+29il0pS4b07p3bndFIQOiGB9ZsKDMaXeT5KUikNA2fl0O4+wMGGt+3eS5zCn7Ufd8Cx72/3/88zM27v6jX4N/8EHsjo/be0SyWp0A4hn92PVwDzOikQhU9gdXd3/xpolnxA7ttoNCyOKknldGpO7X4Wdw9rpy3IZ/ngv4nT94tuZ2BDh0G8bsu4vTUpl9Eku926d7NLJanQPppTu4PAvZ0UiMInsKZNm3Y38OeSD8gEeKPnpSSV0pXksxx+CjDT8LbNx4GeHNr9HjDSIdcq+zkM6AL2yrC9JnDtGv7bKzL6DLuSz65WkqS190LgeTm1/cNOC0YnLCEkhHBB2UdlCOGoBQsWdHt+SlIpnZZTu5/qlN/yDrcj+ez8M0JMYHWK5zoUmEK2u4D+g1jEf01klcAaD7gSQJKKpwv4Qk5t302HLR+kUy56a7XaBRUYnJvddtttdc9RSSqlHwH/zaHdPYFXGt7cnUg+ta/mADd3UBxmOBQ4JOP2rlyLf3tFhp/jALtWkgrn7WS/bH2lHwLLOy0gnZLA+j0dtjZzTYQQ3FVKksppCfnVwvoM2c4I0SMdCLwip7a/1GGx2AfYtuLj4UUZt3fpWvzb64H7M/ocUz3VJalQNgU+kVPbAfi/TgxKRySwpk+fvjxJknMqMEhf2Gg0fAImSeX0VWBZDu1uQyzoruyNJSYe87heugj4YwfGZHqFx8O6wHMybnP+WvzbYbLbrdsEliQVyynA+jm1PQ+4oROD0jF1M5Ik+XlFBuoHPFclqZTuAH6QU9tvw/pEefgwsEdObZ/UoTHpq/B4OAIYl2F797H2ywB/ldFn2Ya4JFmSNPreALw8x/a/2qmB6ZgE1qabbnohcFfZR2oIYebg4OBenrOSVEqfBJbm9Hv+XWIxZmVjL+CEnNq+nLh1dSd6AbB7RcfEqzNu73es/Q6U52f4eV5R0X49hVjMeG1fP/ZrU1IGdm59L+Xliox/O9qqYxJYU6ZMGQLOrsCATZrN5qc8byWplG4FvpPjBc9HDXEmxgDfJi4hzMNHifUnOtVRFRwTmwMHZdzm/AzauAG4KaPP80ogqWDfTgc2yOB1JZK0diYCZ5FvbdMTO/kapKO23g4hVOXJxsyBgYEXeP5KUil9Fngwp7aPB15oiNfaJ4D9c2r7YuCXHR6f1wETKjYm3kLczjxLFxSsne2JM+yqZGtgxwzPbUlaU13EXavzXI31FyDt5CB1VAJr5syZvwWuqsLoTZLky7Nnz655HktS6Swiv/pHXcBPgC0M8xqbTkwE5qEJvKcEMdoQqNLOyROAd2bc5vUZXtP+IsPPVbVarIdn1M5yYIFfn5LWwleAw3J+jxPo7BngdGKC5NSKDOB9J0+e/GrPY0kqpS8AN+fU9qbAOVRvhkwWdiU+/czr+ugM4NKSxOp44q58VfBGYKOM2/xJhm1dANyWUVvTgH0rdM6/LKN2LiOfXWYlVcPHyP5ByaPNA87r9EB1XAJr6dKlpwP3V2Qgf2nevHkbez5LUuksJb9ZPgDPIhZ1Twz1KtsYaBBr2eThAeKuhmWxIfCuCoyLceQzay7L3bWHgZ9m1FYCzK7IOb8dcGBGbTX8CpW0ho4n1qXK0zAlmWHbcQmsvr6+xUmS/Kgig3nDZrP5ec9pSSqlnwPn5tj+K4gzvfTU1iHWhNghx/f4MLGIf5mckHPMiuA9xERHlhYQi69nKcs6sTOB3gqc9+/I8F7oHL9GJa2mGvAt4HNteK8vA9eUJWgdZ3h4+Bt0+NrNVRVCeN3AwIAFeSWpnN4KLM755vtEw/ykeoAB8ivaDnHZ4P+VMHYTgG9S3pl+mwEfzKHdn+TQ5uXAtRm2d0rr3CirdYhLQ7NwHfA3v0olrYYNiQ/Ojm7De91IiWbWdmQC67DDDruW6jzpSJIkOf3cc899mue5JJXOzcBHc36PjwGfNNRPeBM7CByU43usAI4CRkoaw0OIuxKW0efJfivzB4Dv5/R5s6wTuz1xx9Syei/ZLReuyj2JpGxMJtbNm96G9wrA24AlZQlex+5yV6vVPkFFZmEBWw0NDZ3quS5JpfRV4Nc5v8dHiDOA3N32IRsAvwKm5vw+HwWuLnksvwbsWbJjOhJ4TQ7tngbcm9Nn/g5wZ4btHUt2Rc6LZDNiAiurm8Mf+nUqaRWMbV0T/IHsl6Y/2e/zBWUKYsdeyM6YMeMvSZIMVGjAvyxN09d63ktS6TSJM1juyfl93gacCUw05OwKXAI8O+f3mU816pBNIi6F2Kgkx7M98O0c2h0mJqzzsoS4DXtWEuJmEDuXbLx+vTVms/A74hJCSXoyzwGuAD5BTGS1w1Xku2HQqOjoJ7EjIyMnUp1ZWABfbzQau3n+S1Lp/Jv21EE4ArgIeHqFY/0S4E/ATjm/z93ExGSzInHdlrgTXneHH8dE4gYL6+XQdj+wMOfP/3/AfRm2ty5x2/WtSzJOXwm8NMP2vuXPl6QnsRVweuvaa482vu9i4gzaZWULaEcnsGbNmvXnis3CWieEMOf8889fz+8CSSqdM4mFk/P2DOCvwMsrFt8xxCKmDfJJTjxck7j87JaKxfhg4CxgXId+/nHAHGBKTmPipDYcw71kv2HAtsQlKJt1+Pjcm7iEMyt3AGf70yXpcTwN+DRxx9nX0t68y8prkBvKGNgy1ML4IDBUoZNhl2XLlv1w9uzZ1jGRpPJ5P/D7NrzPesDPWje6kyoQ1x2JS30+3qZrn08A8yo6hmcCc+m8Hey6iLWMDsmp/e8AV7bpWE4mJleytDNwIXF5ZSfaojUus/y++wpxkwZJWmkT4sOyfwIfGqXfwo9S4s0lOj4J0tvbex3l3Jr6ydQnT5482+8HSSqdIaCPuKSwHd5GrJFwcEnj2UUs1nwlsf5EO6S46+OhxGVnnTJjZx3izKsjc2r/XvLfbfTh7iGfuie7E3fOemGHjcfNgPOJM8my8l9iLS1JqgEvJi4Tv4X4sGy0Vkz9kHLvIFuO3YiSJDmx9UNSJR9pNBpv9PtCkkrnNqAXuL9N77ctcTe+n1KeOjcAz2/dbH+B9j0BvRx4FdWpe/VknkdMHBY9Obol8BugnuN7nEj2M6KeyunEWYdZexpwLvCeDrmP2BO4mJh8y9JJwAOe5lJl1YgPxr5AnG11HvEhyNhR/ExzgTdS8hrhpUhg9fb23pMkyccqdtIkIYTTBgYGZvn9IUml89fWhVC7lsgnwCuA64nL3zbo4NjtSizC/Vtg3za+703ExONih+//bAz8kjj7aGwBP98MYtLxmTm+x/XAN0bh2ALw9py+Q7qBLxKLEhd5c6FXAH8k+2WPt1K91R+SYkH21xIfEPwb+ANxlncRNsa5gFjbdLjsnVCaOkpLliw5jfbVFiiKriRJftRoNCb7fSJJpfMr4E20dzbPhFay4V/ERNZGHRSvPYGfANcQl2G20x3E3Q1vc9g+xpjWWLoGmFaQz7Q+cCqxoP+mOb7PMPFp+GjVar0G+HyO7T8H+DOxUHGRkt5bEIur/5R8avwdAyzx1JZKaT1gF+AFwFHAZ4ilARYRlweeTkxibV6gz3wuMAtYXpWLilLo6+sbGRwcfEuz2byYWPOiKiaFEM5P0/Tger1+hd85klQqZxB3RjuVOEuqnRdwHyUWlT+TuFX8HwoYn3HA4cRaXs8fpc9wF7Hw9/UO1ye1I3E21lmtG4I/j8Jn6CEmlD5Ce+pzfYw4A2g0fRzYn/yWco4jFio+ljjT7HPEml+jck0MvKP1edbN6T0auPOgtKa+BjxYkM8yvvWbMKH12rj1GtthMT0TeDUV2lBiTJkOZsaMGZekafoV4lS+KtkAOHdgYGDqzJkzr/G7UZJK5dvEJTtfp71JrJUXeK9pvf7ZulA6C7iC0avz1AO8iLjEciZxNs1ouYeYvLrSYbrKXtZ6/Ya4i1vahrG0HjHJeRz5zrh6uPnEOkmjbaR1/l5BvjMGJhELx7+dWMj4B8TaU+2oxbJr631fR36JK4D7gLd6CktrbLohyNQ3gHe1vucro1a2A1q6dOlHgRsqOIA3TpLkgrlz5+7iuSxJpfN/wFtG+SJl+9YN6mXEpXI/B44m1pnK84nlesBBwAeJNR7uJiY9XsvoJq8WAVMZnZlEo+HGjNs7iLjN93+A7xETkln255atZMO81nj9LO1LXv2XmDQqSjH/24BX0p7aKOsQl938HvgbscBxL9nuyDUGmAx8uHX+XUdc1rduzsf21tZ4laTRNExMXL2TiiWvVv4AlEpfX9/SNE1f3/rh7KpYf25Wq9V+Ozg4OG3GjBl/8dyWpFL5TuvG+KfEmVGjaWNinamVtaZWAFcTHyD9gzhb6z/Ana3P/ABxWdGjZ2OMJc7c2JBYb2tD4q6I2wM7AHu0/ndSsL64ETi0dZxV8Sri9txZPyjbDHhD6zVMnM32t1ZS4npicfy7iMXxH+Sh5ScTW2Nn5fjZvjVedmv9ucsojZvlxGRc0RIdvyUmoL/Yxvfcibgq4r2tm6y/Ale1viNWvu5s9e1SHrmr33hiQmqT1hjZnriT4J7AfsREWTt9GfiZP0OSRtntxGLtv61qAMaU8aDq9fof0zT9OjEzWTWbNpvN+XPnzu2dNWvWxZ7jklQq5xATJ2e3btqLYixxJ7dV2c1tBXFJZNKhfXAJsVjq7RUbe0uJSaY8HxCOWcVxFAo6fkaA/0dcHllEXwKeRpy51G5dq9i3TYq3QuS3wAf8+ZE0yi4gzj5fVOUg1Mp6YJMmTTqB+KSnitav1Wq/GhwcnOZ5Lkml8zvisr1O3bhjLJ2bvPopcdng7RUde38EZhfgcxR1/LwD+EXB+/AjxESW9yar5jrijLphJGl0LCXOZH0xFU9eFfFHIjNTp05dVqvV+njkdOQqmdBsNtM0TS02KUnlcwtxi+c5hqIthoH3EZfRLa14LD5NLOavR/oYcbfQTvA+Yl09Pbkbibs33mkoJI2S3xFnrn6J9myKUXi1Mh/cjBkzbkiS5C0V7t8xwDfTND1l9uzZNYe7JJXKYuAI4s5bSwxHbhYCL6S9tYOKLBCXEv7RUABxydtxwCc7rA/fSazrpMd3M3G301sNhaRRsKh1fXcQsR6kWkqf1Ojt7f0Z8P2K9/OxkydP7k/TdIJDXpJK5wzgAOJSF2XrTGAfYt0nPeRBYBqxHliVLSPu7ndKB372ALwHeHXrOPSQq4gzXBcaCklttgQ4Cdi1dX3nrKtHqcqsnHcC11S8r18KXDQwMLCdw16SSuevxCnmJwJDhmOt3QMcTdxl8V7D8bjuJyax5lf0+O8k1kPr7/Dj+DFxhuFtDmkAzgWeS5yBJUntsoT4MGRH4ITWb6weRyUSWPV6fUkIoY5r2PdNkuQvaZoe5tCXpNJZRiyw/SxggeFYY2cCuwCnGYqndC9xV8yqxep3wH7An0pyPH8E9qfay0KbxFkPM7xxlNRG9wGfBbYlLkdfZEieXGXqIs2cOfNfSZK8HJ9Mrwv8Ik3T2dbFkqRS+ivwHOIMojsMxyq7DngJcdaVRZtX3VBrrB1F+TfOWQa8nzjz6qaSHdtC4syjo4n19arkZmKx9hOIiSxJytvfiAmrrYAPed2x6iqVwOjt7Z3f+mG23+HjkydPvnDevHlbGQ5JKp1h4qyY3YCv4sObJ3MH8FZgL+LyIa2Z7wH7AheX9Pj+TJzd+AXKm+Rotr439gEurMCYDa1xuzfVXQorqX3uBr4NPJ9Y4+oUqvfAYK1VbgZOvV7/fgjhK3Y9AAeNjIxcPTAw8EpDIUmlvVh6F7GmwmnExJYeis2JwE7AqcCIIVlr/2hdmL8ZuKskx3QHcAxxid3VFenHfwKHEHfAuqmkx/gH4kzVo3DJoKT83AX8CJgFbA68BTeGWSuVXEK2bNmy9wGDdj8A6yVJ8pM0TU+bO3fuOoZDkkppIXEG8u7A6cCKCsfiTuDjwHbEmmHevGarCXyHWEfs88TCtJ1oMTHBuSPwdao3izEQd8DauXXDVZai5jcCLycul7zE01VSxoaBS4HPAAcCmwKvAQYqfu2VmUomsPr6+kaWLl16JGY/H+7NtVrtqjRNX2woJKm0/g68HtiGWO/l1god+8p6E9sCn8DEVd7uAo4HdgBOJu7s2AkWE5fd7khMcD5Q8X4cIi552Zm41PamDj2Oi4k7cu9C3DnSreklZeFWYF7r9+JgYH3ijN0PE2d6Ors7Y5Ut4t3X17d0/PjxdeAKh8H/PB04L03T/nPPPfdphkOSSut24o5bOwCval18lXF54b3E2UAPrzexxO5vq9uADwBbE2fy/IZi1pC6FngPsaDuu1rniB6ygrjUdgdgOjCX4s8muKd1/j+bOOPqbCzSLmn1DREfAJ4LfAN4N/BiYBNgS+LupScSawc+aLjyNabKB3/IIYfcNzg4OKPZbP6e+KRN0ZFDQ0MHpGl6XL1eP8twSFJpLQN+2nptCryCWKfheR18jXAfcB5wFpC2jlGj70HiTJ5vA5sRZ8P0tRILo/VA9Ubiso4f4wPNVdUEftl6bdD6vngpcWfGiQX4fHcBv2p9p51H5yzZ+RPZ7Bp7ZcnH31LggozaascM5NuA3+XU9k05f/a/ZxjrIlrBQ8mm+4izsh9o/XlX63z8d+vPO3DWZmEkhgDOOeecrbu6ui4iLqnQI81PkuQdvb291xmKR931fXWbC0h4UVmPLxA+2XPMLR+zp6VKWh84lDjT4vnEZXdFNdK6afs1sb7lRbjr4kp9wM8zamsv8ilivikxYXoAsaj2M4GxOcXj1tb4uIiY3LjBIZKZscR6LwcRl8/sR0xw5e124DLiLoK/bn0XOMtKkkrKBFbLOeecs3tXV9eFxKeCeqTlxPoVn63X6y69aDGBJalCtiLOlDmAuOX83m26OX08NxMTKVcQ69r8AesUPZFOSGA92nhiEmtXYPuHvbYFngZ0P+HPVlwyuoS4dOym1uufwFXANcAih0Rb7zGe3urHPYibJmxDXG6zEbAOMOlJ+nOlIWKS6t+tP28hzgy5mpis+q+hlqRq/bioZXBwcOdms3lh60Jdj/WfJEk+sWTJku/29fVVviCdCSxJFbdV68Z0+9aN6tNbN6ibARsC661BmyPA3a3Xf4i7J65MRNzYumm9z9Cvsk5MYD2VscTEx/qt//s+YtJqqd3dkWqt74oeYvISYiH9IeLyHnftkiT9zxhD8JAZM2bcMGfOnOeNGTPm18QnRXqkLUMIp/b09Bw7MDDw/pkzZ/7SkEhSZf279XoiXcQZM+sA44AJrf/e07o5XVk0/j4eSlyZnNJTWcFDSU51viZxxtw9hkKS9FRMYD3K4YcfftOcOXNeaBLrSe2RJMm8NE0Hm83mR2fNmvVnQyJJepQR4M7WS5IkSVorNUPwWIcffvhNIyMjL8Dink9lRq1WuzxN07MGBgb2MBySJEmSJCkPJrCewGGHHXbL0NDQ84BLjcaTSoCXJklyZZqmPz7nnHN2NySSJEmSJClLJrCexBFHHHEHMBVIjcYqjaVXdXV1XZ1GzzEkkiRJkiQpCyawnkK9Xl8yadKkI0IIpxmNVZIAvcAf0jSd32g0Dg0huNulJEmSJElaYyawVsHUqVOHZ86ceTRwHBCMyCo7KIRwbqPR+Fuapu/q7++fZEgkSZIkSdLqMoG1Gur1+ilJkrwWWGo0VstOwFd6enpuSdP0i41GY3tDIkmSJEmSVpUJrNXU29v7o1qtdgBws9FYbesD7wkh/D1N0/PTNH1tf39/j2GRJEmSJElPxgTWGpgxY8Zfms3m/sBFRmONx93BwOk9PT03NxqNk9M03dWwSJIkSZKkx2MCaw3NmjXr9kmTJk0NIZxkNNbKxiGE9wHXNRqNaxqNxvHnnnvu5oZFkiRJkiStZAJrLbSKu58AvBnrYq21EMLuIYTPDQ0N3ZKm6bkDAwOvOf/889czMpIkSZIkVZsJrAzU6/XvJEkyGbjKaGSiCzg0SZIzli1bdlej0bgoTdN3DQ4ObmZoJEmSJEmqHhNYGent7b1u7Nixz0mS5AdGI1NdIYQDga80m81/p2l6YZqm70rTdCdDI0mSJElSNYwxBNk59NBDHwTekKbpIPAdwOVv2eoCXth6fSVN03+GEC5IkqQxadKk86dOnbrMEEmSJEmSVD4msHJQr9fPGhwcvHJkZOTHSZJMMSK52T5JkrcAb1m8ePGSRqNxcQjh17Vabf6DDz64oK+vb8QQSZIkSZLU+Uxg5WTGjBk3zJ8//zkPPvjgB0MIHwW6jUquJoQQDgEOaTab9PT03J+m6W9DCL8LIfyxu7t7wfTp05cbJkmSJEmSOo8JrBxNnTp1GPjk4OBg2mw2Twf2Niptsy5QT5KkniQJIyMjy9M0vRz4Y5IkfwghLKjX6wsNkyRJkiRJxWcCqw1mzJjxl/7+/meNHz/+40mSfMC4j4pxwAHAASGE9wKkafpf4HLgihDC5bVa7c8zZsz4V5IkwXBJkiRJklQciSForzRN9yMWeN/LaBTSgyGE62q12tUhhGtDCFePjIxcNzQ0dMuja2ot++o2F5DworIGIhA+2XPMLR9zSEhSx+oDfp5RW3sBVxtSSZI0WpwJ1Gb1ev3SBQsWTF60aNFxwMeBiUalUCYmSTIlhDAFIEkSxowZw5gxY1akafov4EbgH0mS3Lh04YfG9ozca8QkSZIkScpZzRC035QpU4bq9frJwC7AL4xIRxjb6q8ZwLEhhK/eP27bSYZFkiRJkqT8mcAaRfV6/T/1ev1lwEzAguKSJEmSJEmPwwRWAdTr9bTZbO4JfB5YbkQkSZIkSZIeYgKrIGbNmvVAvV4/fmRkZCfgh4A74UmSJEmSJGECq3AOO+ywW+r1+mtrtdpzgD8aEUmSJEmSVHUmsApqxowZl1x++eXPDSG8AbjViEiSJEmSpKoygVVgs2fPbs6cOfMHXV1d2ydJcjRwu1GRJEmSJElVYwKrA0yfPn15b2/vaUuXLt0xSZITgHuNiiRJkiRJqgoTWB2kr69vcW9v70nd3d07hBBOApYYFeXk9iQklxkGSZIkSVIRmMDqQNOmTbt75syZJ3R3d++YJMmXgQeNijKRcBNw3Lixw9uPP3ZhakAkSZIkSUVgAquDTZs2bVFvb+97hoaGng6cCNxtVLSGrg6B143778Kdxh+z8JTk6Fud3SdJkiRJKowxhqDzHXHEEXcBs/v7+7/Q09NzFPB+YEsjo1VwMYGTxh2zsJEkBMMhSZIkSSoiZ2CVSF9f3+J6vX7KpEmTdkyS5O3A342KnsDFBGaOP2bhc8cfuzA1eSVJkiRJKjJnYJXQ1KlTlwHfDCF8a3Bw8EUhhHcBM4DE6FRaE5hXq4VPjH3HLRZolyRJkiR1DBNYJZYkSQAuAC5I03Qn4J3AUcBEo1MpK5LAz0Oz69Pjj/vX3wyHJEmSJKnTmMCqiHq9/nfgXeeee+6JQ0NDbwKOBrY3MiWW8ADw/WZX8/MT3vbv/xgQSZIkSVKnMoFVMdOmTbsb+HwI4eRGo3FgCOE1SZK8BugxOmWR3BkI/ze+xinJ2xfeYzwkSZIkSZ3OBFZFtZYXXgRcNGfOnOO7u7v7QgjvBPYyOp3aqdxE4Cvjxg59Ozn61iUGRJIkSZJUFiawxOGHH34vcBpw2uDg4PNDCG8IIRwBrGt0OsLVIXDy+LsW/iSZzbDhkCS13AKcmVFb9xlOSZI0mtyVTo9r/vz54xcvXnwI8BpgFjDWqDzS3nd8+8+bLvnLvqN49l6eBE4a+86FZyUJwR6RJEmSJJWVCSw9pUajsUEIoU5MZr3IcRONYgLrYgInjT92YWovSJIkSZKqwESEVsvAwMB2SZK8DDgC2L/KY6jNCawmMK9WC58Y+45bLnMkSpIkSZKqxASW1ti8efM2HhkZeQlwJHAo0F2l429TAmtFEvh5aHZ9evxx//qbo06SJEmSVEUmsJSJVjJrFnAYMBWYUPZjzjWBlfAA8P1mV/PzE9727/84wiRJkiRJVWYCS5mbP3/++AcffPC5zWbz4FqtVg8h7F7G48wngZXcGQj/N76LU5K3L7zH0SRJkiRJkgkstcHg4ODOzWbzJcB04PnA+DIcV6YJrISbCHxl3NjhbydH37rEUSNJkiRJ0sNvm6U2mj9//pgHH3xwH+DgEMLBwPOAcZ14LBklsK4OgZPH373wJ8lshh0hkiRJkiQ9lgksjao0TSckSXJACOG5wIHEGVpjO+Gzr1UCK+HyJHDS2HcuPCtJCI4ESZIkSZKe7DZaKpDzzjtv4ooVK/YFJhMTWlOBjYr4WdcwgXUxgZPGH7swtbclSZIkSVo1JrBUaCGEZHBwcNcQwrOBA4BnA7sBXaP92VYjgdUE5tVq4RNj33HLZfaqJEmSJEmrZ4whUJElSRKA61qv7wMsWLCg+9Zbb905SZLJwOQkSSaHEPYFJhTs469IAj8Pza5Pjz/uX3+zNyVJkiRJWjMmsNRxpkyZMgRc03qdAbE4/JIlS3ZrNpv7JkmyVwhhd+JMracDtTZ/xMUkfK/Z1fz8hLf9+z/2mCRJkiRJa8cElkph6tSpw8BVrdf/pGk6AdgV2K2V1No1SZLdge3IfPfD5M5A+L/xXZySvH3hPfaKJEmSJEnZMIGlUqvX60uAK1qvR2g0GhsA2698NZvN7ZMkWfl/b8uqz9y6GfjyuLFD306OvnWJUZckSZIkKVsWcZceR39/f8+4ceO27Orq2rzZbG4FbFar1bYGNgshbAVssdddZ/xl0/svnTP+7pt/nsxm2KhJkiRJkiRJkiRJkiRJkiRJkiRJkiRJkiRJkiRJkiRJkiRJkiRJkiRJkiRJkiRJkiRJkiRJkiRJkiRJkiRJkiRJkiRJkiRJkiRJkiRJkiRJkiRJkiRJkiRJkiRJkiRJkiRJkiRJkiRJkiRJkiRJkiRJkiRJkiRJkiRJkiRJkiRJkiRJkiRJkiRJkiRJkiRJkiRJkiRJkiRJkiRJkiRJkiRJkiRJkiRJkiRJkiRJkiRJkiRJkiRJkiRJkiRJkiRJkiRJkiRJkiRJkiRJkiRJkiRJkiRJkiRJkiRJkiRJkiRJkiRJkiRJkiRJkiRJkiRJkiRJkiRJkiRJkiRJkiRJkiRJkiRJkiRJkiRJkiRJkiRJkiRJkiRJkiRJkiRJkiRJkiRJkiRJkiRJkiRJkiRJkiRJkiRJkiRJkiRJkiRJkiRJkiRJkiRJkiRJkiRJkiRJkiRJkiRJkiRJkiRJkiRJkiRJkiRJkiRJkiRJkiRJkiRJkiRJkiRJkiQV1P8H+M1hZhw9EbYAAAAldEVYdGRhdGU6Y3JlYXRlADIwMjItMDQtMjRUMDg6MTA6MDMrMDA6MDBhzGjgAAAAJXRFWHRkYXRlOm1vZGlmeQAyMDIyLTA0LTI0VDA4OjEwOjAzKzAwOjAwEJHQXAAAAABJRU5ErkJggg==;" vertex="1" parent="DV4N-qlM-KyrqjE6VusM-28">
          <mxGeometry width="100" height="37.5" as="geometry" />
        </mxCell>
        <mxCell id="DV4N-qlM-KyrqjE6VusM-26" value="Provider" style="text;html=1;align=center;verticalAlign=middle;whiteSpace=wrap;rounded=0;fontSize=17;" vertex="1" parent="DV4N-qlM-KyrqjE6VusM-28">
          <mxGeometry x="104" y="6.5" width="60" height="30" as="geometry" />
        </mxCell>
        <mxCell id="DV4N-qlM-KyrqjE6VusM-29" value="&lt;div style=&quot;text-align: left;&quot;&gt;&lt;b style=&quot;background-color: initial;&quot;&gt;IdP to trust&lt;/b&gt;&lt;span style=&quot;background-color: initial;&quot;&gt;: GitHub&lt;/span&gt;&lt;/div&gt;&lt;div style=&quot;text-align: left;&quot;&gt;&lt;b&gt;Thumprint&lt;/b&gt;: xxxxxxxxx&lt;/div&gt;" style="text;html=1;align=center;verticalAlign=middle;whiteSpace=wrap;rounded=0;" vertex="1" parent="1">
          <mxGeometry x="571" y="120" width="130" height="30" as="geometry" />
        </mxCell>
        <mxCell id="DV4N-qlM-KyrqjE6VusM-31" value="" style="group" vertex="1" connectable="0" parent="1">
          <mxGeometry x="801" y="60" width="201.5" height="126" as="geometry" />
        </mxCell>
        <mxCell id="DV4N-qlM-KyrqjE6VusM-19" value="" style="rounded=0;whiteSpace=wrap;html=1;" vertex="1" parent="DV4N-qlM-KyrqjE6VusM-31">
          <mxGeometry width="190" height="100" as="geometry" />
        </mxCell>
        <mxCell id="DV4N-qlM-KyrqjE6VusM-22" value="&lt;b&gt;Trust&lt;/b&gt;: GitHub provider&lt;div&gt;&lt;b&gt;Conditions&lt;/b&gt;: only repos a, b, c&lt;/div&gt;" style="text;html=1;align=left;verticalAlign=middle;whiteSpace=wrap;rounded=0;" vertex="1" parent="DV4N-qlM-KyrqjE6VusM-31">
          <mxGeometry x="10" y="39" width="170" height="60" as="geometry" />
        </mxCell>
        <mxCell id="DV4N-qlM-KyrqjE6VusM-30" value="" style="group" vertex="1" connectable="0" parent="DV4N-qlM-KyrqjE6VusM-31">
          <mxGeometry x="-20" y="9" width="170" height="44" as="geometry" />
        </mxCell>
        <mxCell id="DV4N-qlM-KyrqjE6VusM-21" value="IAM Role" style="text;html=1;align=center;verticalAlign=middle;whiteSpace=wrap;rounded=0;fontSize=17;" vertex="1" parent="DV4N-qlM-KyrqjE6VusM-30">
          <mxGeometry x="90" y="7" width="80" height="30" as="geometry" />
        </mxCell>
        <mxCell id="DV4N-qlM-KyrqjE6VusM-20" value="" style="sketch=0;outlineConnect=0;fontColor=#232F3E;gradientColor=none;fillColor=#DD344C;strokeColor=none;dashed=0;verticalLabelPosition=bottom;verticalAlign=top;align=center;html=1;fontSize=12;fontStyle=0;aspect=fixed;pointerEvents=1;shape=mxgraph.aws4.role;" vertex="1" parent="DV4N-qlM-KyrqjE6VusM-31">
          <mxGeometry x="10" y="16" width="53.18" height="30" as="geometry" />
        </mxCell>
        <mxCell id="DV4N-qlM-KyrqjE6VusM-32" value="" style="rounded=1;whiteSpace=wrap;html=1;fillColor=none;" vertex="1" parent="1">
          <mxGeometry x="30" y="40" width="390" height="340" as="geometry" />
        </mxCell>
        <mxCell id="DV4N-qlM-KyrqjE6VusM-33" value="" style="group" vertex="1" connectable="0" parent="1">
          <mxGeometry x="40" y="230" width="90" height="120" as="geometry" />
        </mxCell>
        <mxCell id="DV4N-qlM-KyrqjE6VusM-34" value="" style="shape=image;html=1;verticalAlign=top;verticalLabelPosition=bottom;labelBackgroundColor=#ffffff;imageAspect=0;aspect=fixed;image=https://cdn4.iconfinder.com/data/icons/ionicons/512/icon-social-github-128.png" vertex="1" parent="DV4N-qlM-KyrqjE6VusM-33">
          <mxGeometry x="3.75" width="82.5" height="82.5" as="geometry" />
        </mxCell>
        <mxCell id="DV4N-qlM-KyrqjE6VusM-35" value="GitHub" style="text;html=1;align=center;verticalAlign=middle;whiteSpace=wrap;rounded=0;" vertex="1" parent="DV4N-qlM-KyrqjE6VusM-33">
          <mxGeometry y="79" width="90" height="30" as="geometry" />
        </mxCell>
        <mxCell id="DV4N-qlM-KyrqjE6VusM-36" value="" style="rounded=0;whiteSpace=wrap;html=1;" vertex="1" parent="1">
          <mxGeometry x="150" y="55.25" width="240" height="294.75" as="geometry" />
        </mxCell>
        <mxCell id="DV4N-qlM-KyrqjE6VusM-38" value="" style="shape=image;verticalLabelPosition=bottom;labelBackgroundColor=default;verticalAlign=top;aspect=fixed;imageAspect=0;image=data:image/png,iVBORw0KGgoAAAANSUhEUgAAASwAAAEsCAMAAABOo35HAAAC9FBMVEVHcExQgL1Kfb9JfL5KfL1Jfr9Jfr9Jfb5Jfr5Jfr9Kfr5Kfr9KfsBJfb9KfsBKgMNLd75Mf8JKfsBJfb5Jfb9Jfr9Kfr9Ng8dQiM5Ph81OhcpJfr9Kf8BKfr9Jfr5IfL1LgMJKfsBKgMJOhMhOhMlMgsVMgcNLgMJLf8BOhclKgMJJfb9LgMJKfsBKfsBLgMNLgMJNhMhPh8xNg8ZKf8BKfsBKfsFJfr9Kf8FOhstMgcROhspKfr9KgMFZkcZIe7xKfsBJfr9PhstKfsBMgsRJfb9Jfr5KfcBKfsBJfb9Lf8FKfr9NgsVPhsxIe7lKfr9Jfr9NgsZLgMJLgMNJfb5GerlLgcRLgMNKf8FJfb1LgcRKfb5Jfr9LgcRJfb9Jfb5Jfb9KfsBJfb5Jfr9KfsFGfLpIfb5Kfb9Ke71IfbxJfb9IfL5LgMNLgcNJfb9Jfb5Jf71LgMJKgMJKfr9Kf8FJfsBKfsBLgMJJfb5MgcVKfr5Kf8JJfb5LgMNLfb9Jfb5Jfr9Jfb5Jfb9Jfb5JfsBJfb9LgcNLgMJLgMNKf79Jfr9GerlHe7tLgcRQh81JfL1JfsBJfb5KfsBKfr9LgMNLgMFEeLtJfr9JfsNKfr9LgMJPh8tJfb5Qic9Kfb9Jfr9MgsVJfb9Kfr9Jfb5TgbBJfr5Kfb9LgMJHfr5LgMNJfr9Jfb9MgcVLgcRKfb6Fs96Dsd6Es9+Es96Fs9+FtOGEst6Est6Es96GstyFtN+Fs9+Fs9+GteKGteGFtOCFs9+ItuOIuOWGtOCFtOCFs9+Es9+GtOGFtOCFtOGFtOCEst+KuuePwO+Nvu2KuuiHtuKGteGJueaLvOqOv+6FtOCFtOCEs96Fs+CFs9+HtuOFs9+DsduHtuOOwO+MveyDseGGteKHtuOGtOCEs+CEst6Ht+SFs9+HtuOFs9+It+WJuOaFs9+Es+CFs96Fs9+PwfGFs9+Est+Fst6Fs9+Fs+CHtuOFst+It+SFs9+Est6Qw/KFs+DyYsmOAAAA/HRSTlMABBw4UWJ+k6+0sqx7TjYZBi2NuuLy///////giF0oH5rX9P/////////w1ZdaabTt/////+yvSKT////poAMZcc/////JbRaC5f95F/8QZt3/1bouC/XIwzHy/fzu78GcRpi+2gkmhiotUkTj5qYhJOndVfi3vPxL9/+VPPkrLPRYPkB2gOvM0g/MDhT7/zTnOkJ0//8SqQxv4P+f/9LG/Y/3HgHZYI8Tr/mK/9myCRYpPFBVQTMeES9ji7DP7/z////24MOeeESW1v///////////+dzSZv/wG8bxv//Ddv4pzhb02mzI+b6f03/ov+zyr24rruF8ZHP/3sC67hSAAAqrUlEQVR4Aezd+VvT6P7w8Q87KEVGh09IFLc2TaMDY9MwQJAtBYRgQBRUHFEWQQdUcHBFUVEUB7GggCKDO6Kj4/kbH7/zHJo7TZcEevAq4+tnL5vrzZ19uWE54uITEpOSU1LT1n2Vtj4lPcmWsSEOAnyX+UPSxk0/ZiGVTTPUfzF0NoVZm9O25Gz1F/tuW872HTvt2Q7WyblQx8U5WT6b2rX7p9x4+A625f28xy14nCKG5HJStD3/l6R/ea/MgsL8IkYSMSJRKmb2lhSUwr9VWXkFK0teNEmsFNiq6n3wbxRfUyu7FbREsRdtrtsP/zb7ampVD1rn9aib6+rh3ySu4YDQiMvkEQ7mwL9HwiGGwhVw239ugn+H5prDsogroqi70jPhXyDjiODEsFzcVxFyVspHW2DNqz5WHPpYiuIZRlY9vx7/9VdKLWIYngp5sCrKrUmwttWXFLMhDqIcsvvEjpNt6Um29oSvCmwNyR2dp7Icsj3EoVijvaML1rDuI7QSrBRbzOd3nrad6YIAzb/1bDm5h2FYEY044eg2WLN6z6poxDHuc+dz+yCk/pz1FxwMhwZe+vcEWKMGWnk0kOiLl3LKIIL4pMtXVCcaMBeuwpqUc40aNKbKup4BptzYvkuVMMCg+3AirEG5Q43GjU7W9Ztg2q2U2yqHAahja7BWjqGVyFwpuQmWtJznGG9grbU3toavBbaS5KN3wLL2I4JkqHUV1pS7rRTqMTtHMmEZuu4N8ahnv58Ba0j/WX4QSYowmrDs8A8EBUmDzIF4WDP+GFP1rSR++0NYtvFCxok69MlmWCsKaS+SqEflsCLJlR5dfdHXAWtEHqPoj41abbBCuccoXS3OngNrwsROVr+FmXwMK/bkvl1Xy7PnFqwBXVXFulb8ZAZEwd09Dl0toTMOYt9pQb8Okq1WVosia4lFUxDzJoacSKB2ZUCUPDnMIoHd9QPEuNKT8iBqpEc2CKq+b9u2ZrAml51GgnAJYlxSkYiaGb4cgugr33Rq72TtwXV5/WBFsqygRnH3QEx7esCNBLUNjB7WXBAYimVZipHv/7QVLHgmIMGxuxliWTKNhKKKWTD4bdTH4hIpuzX5DzBtfIfuNEp9DjFs/6QHNZXHJsCgZU5FEiscHADT7up2H9SBeohdyQJqxD9HguTcoWIAu6ew2/KBSewPrX21HtQwVXFgMP8CDRT1fl0mmNO827FGhtZzFTXc0A0weHyFwyBYdawAzLkqcahhkiBGdb20o0aYB6NCHwblZa5s3wampApkrFelEJtslIJ+0u1+MNi3l8UQOHrO3ChpuuhEv5nXTyA2nVdRo74Bo0RWwZAo5tIEmJDyJ2qENohJ205IxMDK6gOj0zKG4ZKP1TRDRFvfTqMfW7sPYlEDWYJOgSBKfOinONFAUkevQkSFAvp5+WGIRWnF6MddbIEg1slaq6wTzAwG8vLOkniI4C65S5XPQwx6d6IS/ZhNECGWZ3dLCeVAA06Yy4HwFl7x6Nc4OQ6xJ8ch4hLRnQPBpBKx3mfCwEHaiQaU45dbEFY1cZta8dgg9szT6MfuHYcgSi8zRKynAE83XisSgxzR7ymPgzC2ZUnoJ7yBmJO5wxNxQ9I15tbHArhzVGbRgGUOTUAYaQz62ccg5vz21olLRD7XbCyIK78vKBhIlHeeng234xWJg5R+iDWLDhcuqTzxznQsgK3PPO5gRxFH7kIoW287cYmL6oFY8yYb/RydYCEWQO7vwTb0/NCHpxDcQhWFfr57EGs28egnn7YWC8Y/DDFeDOSkHxRAcG8E9GPWQ4yJ28ziEtGeaC4W4cmrYBt6/tFPHyGYxWKtLbV7AWJLPLEVkbK2Wo4FXXX3BRcG4rIfTEAQE8TuRMp/B7El4TiHS6j3zaZjEc785abQQN5zF4zqa1kt6KfHEFsS3dqw4DvBfCzS4hzNYYBB+55gLarsuMTlGYDYspiNfkzbMmNB/PUrjKGWfKoMDM4z6JedB7Hlno+IlQ7BLXTy+lhG7aNqJQbI7gh/ZYyugdiSUox+RUkQwjo5UiyYvbdTFVHHebEJAlULMXx2mEqhn5BoPRah6Wfeg6RgVxJzyNX+PMSWNIrY4LZbi2XQcFblkGA3PtTQY3fFbqx1WizueMIKY8G2EkkaRD/u7U0I0DujfI+1ZHjPNPqJ1A0I0M59j6V5Rn+PZTZWQyu3dmORG3iqYKWxmv6iyG2W03iyOcCLWqxnEFvWu6N26ADNybsEBQn8WGbYM4bCWD4obVhRrPYjKos69GkINBXLB6XJ5OlO8gpibWtzMqgn7eyHQJ/l2LxUalwt5pcdayHvrPHCQ/ZpMHgWyyfSNoq4RHMyzB3+sLEmgnzhZ1AYexj2Eo3C9kBsySAu/nkO/AFBZVa5w8Wq/3w4yC3XonNnwGCcuPg3/SkBYsuGLCcucd7+YTnXswYOChIGEoW5x2CU8IkjLitvgNhSeoBFP2bAeqz+QtaBBqxwqA+CaBAwhm9YQBp5K+yz1ViZU/dVLtiXjUJ8NqtDxpg7JiVszEY/+yuLsZ4cZVg0YIsOtYQYxxUU+mUnQ6zJIe5YSCf6zMQibrEGe5ZG2PM8DoL7gbgTpry2Qaw5Qyw/MjkWYi3+LjjRgHL/1Q2hVKtIPFixDWJN3G4P+hWvh2DijjoMsX77y0EFfdB70eSzAvYqiD0dNPr9nV8W+Qi+/p/70K2qggaMtD0eQusnbn+j7zPEngFio+VlGiLGOtAMUDAm/I0GkhDhmeUp2UscvxdA7NmvewC3M1IsZWi4aZ7j0UCUL57+A8IpHbOjX2PtU4hBqUXkW04JEESajH6K91eeQwMPcygDwut9PYN+8jzEoiTZFeE1J0iVUaMEScWpZ/MWrLz867UPQCwqy2eROD+8CUYd2RiOl3GW9EEkGUNEZc/meohJJSpqfG1gNMKLGBqrHmm3+la5kAKx6Yk0QwytnTfB4O60ghrDEXtdF4C1gcUNZUBsihvjUfPnejCYfU9hCA7q2VYwY5OM5F53AWJUAyOiH/f6KhjU+DAoVnjQA6YMk2+Aiu5hiFVPf6RQwwT5qkN8LYVGM0Jr8iyY8vGAHTX2HbMQs0YEJNCfwWBR5jAQX3n+poWTKkJRHsSuj7qhNT10FwzaXiiB+8CKRDDLJpGt7e9nIYaVF3tRw5/aB4Ey51VWd3nhXHkzmPVuzo4akWmAWNa8m0cCvR6M6o75KvEf3kph6Kc+MK30Eo0EZiwTYtqAW0GNqN4Do5aSCzwjyzLjuF+SABa8UUUkd7cFEOPShEHUTFfmQBB9uRvXXVq/cbgPrMijOCTQ5yHWndnFIoG91g5R0vNIQkLjhT6IeXWCFzWDVOtdiIqrxzzkmFWKqyH2ZZ4sCnidJCq1CgI+6yqsW4A1YOseT0CtAlixHn2rQfu5d7AmLLo5XS33tUVYobxHnkEkTL/ugTUihfbqarFsDaxE6QdK0rUS6dOwVjR30qjDCX9tgGXru0RzqONblwlrRtkXGXVE4ctVWKbE3wUv6qgv62ENaTnnRj3HlQ9PYRn2/SQZ/qu5blhTnuykUG+aftADluUeFDjUs7cmwBqTeJjCAA5PWgJYcueQ3Y0B3K29QFiztRT5eGEGmHbjmUtW0DCu2mENSjzmxkCc8OlZ+wKYEHf1r+NCkKuq93thTbp7TkaDadlZVd4PEWytq2BlDg3UuQRYo5oO0iIaKHZ118/PWxYghIWJqUu7VLeCBiI92g1rVhl5OEmQGGFnxU9JN/ZDgA03Gra/fCvwTgzCKaz/CGtY6UaWwqCclCx/mqxYn1K3mGPr7bXlJNW9SX05+asqU9MYlPtRDUQUf2Mg7971tra2+ZTkvJ6MePjfiut/klte09H21ee6RVtLPazI8FlBxBA4luKLVNrXqCiebFqVeYrlMASFnrNBWKUZefMVk8ftPpX5P0VqtvvT5Nj2RXKFj6aHT6ZSd+SLMi0z/0dWafb25pMbh/th+bp/ZhoxPGVmxoXheRzr30EYme0fKi4KjJsl51gWp1l3kXy7ouZOHETZR1vJAYXmKYnzkp9e9djl4j2dIy2wXAvV9+kZXBGOPtcAYXSnv6wU3BwG5XQLM2NTfRBFEx82U7JnBoPxSryw8/LiH8seXIV/8yIumxjhk95N21t1O08jzi5f+HAGouTqX0OqR8QwnAxzKn0/LJNtlHHj8njtjqPtENrW7TsFCSNihWPX+yAK2g9JMoeReCl1Lv0pLE9zw3vZLaJlLodckZMJIdXXtNJONEWiL9TNwgr1lVyRFTTFI5zKgWX6WP7SznBoCVdkr2p4CKHZDgosmsYKo3dhJRbyLvg4NM1O/dUNy9Q1fPmK4HGhSQolXEzryYTQZj9IPFrCXKvJhGXb9hffiFYowoUkWLbHHw5QqkfBiGYoofH9lgwI5+YRmkOLJOFQPyyT7aygoEUe6nozLFu9bftmiXazSphQrMM3c+D61VkIy3auCK0Thbk7sCxTj+zLOuo52gcrUF9Q8+qCxA9iIHHGyVKyTznbmd7bDBE0XHNjSIqCIfGtw7AMKYyEoXgVEUOSf2+BlYm3zVOoGeQYQXjBKLdrx0qqC/ZBZOksO4hGMxLFCC98LOvLFhhKCtZskHqUBJa1ZXPBz9jcMv1ClqjsbJX3OIM2Kz7bCyvUK5C/OXl+45bnSQVN9WBODeNEA87t4/Krzp+uzuvpyXv+ufBlvtNHcWjAWq/VJhi7e508fXzyaNu96qTE3OqRN6m7s+x0kA3yINP6BFYmUUYNnwaWPOenDYvuES6+qrm6YQH8SuMTT1dcUVmvsdYiWLKdNjRQ3HLWpqm79aCJ61786T2rOg21+AstUYxlryoFC3JfSxiAkg9syVgAg7g7KZOyBwN4DheABVuyA1u5eGp0qhuMmm2FbwXJMLY290Uvlmd3F5iX4H/6aAmrHswbhxDK6uZUCfXs586AaXmGc3S3++hAJoTQ1JFlOCGSq+qjFqtxh4VY+08x+lYueU962GUp27JTFpE0KFQ8BJNuHGZRhxO+5C5AGL8VsnbUo+ejFks68RTMWkjNRh2J+eUmRDDRKThRx9cG5nzcwaAOJaWMQwS2L7QLSQrTEK1YzrfdYFZDsQtJ7mtTEFlpzRUKSYp9GEyZ96GOfNZmZvgHTtjvaT0TpVic2A4mde/xIEme6wVTelr1x8HU3H4wocfDIcGrvtoKpqQ/YpEkbCqNTiyRqQaT/iPoWx1sApMSahkk+TogsvpTDiSI9M/1YFLSkK6Wi2mITiykO8Acm/4PLYy+A9NaanVja/rRDYjoNI0kIW0WTEscakQCVVsWnVie910m32lkdEd71p4+arlgJ2oNFl2Ogwi2Zv2NBPXSLFiwqH8aPftzdGIpnqsmX2l0kYl3TYAlvdck1IjuHktvoQ0yD8bBkilGQQ2bvy0qsZDpNDeTKa97IWUYLKpmZlBTfHIBwurOIuM2traARfMCEnyfoxNL5OsgsgHKFf7T59ZeR5959ATC+uxDjeJYBKvqX/K6obUhKrHQ+boaItpUpHuPtR4sK9O9Eqk+g3Ce1rKoEdaDkaXJGFEdiU4srKyMOLZajhO/rLA2WIbFYheG/dIXIYm83cku72WhDgE17oq46MRCJ19SD2FtoVGjpoIJTxsKf04d6Qe/hZPFqJHLTQ9kIR3MmEi/3jFyE/ziyRmOuSt3oxQLFfpBL4SRWeGw+kkH2xdZFlS5lRi0V8nr/0y4TXxflhP9PLXjps5yrhQzjHxsozaC0gXU0BtXHIucTC3MImW4yC/2mBlYw9cYL37FvvhMDC1ivEzfvmluhk6UzQysd6MvOPxKevEs09+PHFrU7rioxcJp4UteM4RwT0Y/F9tuppVnaRX3FMCSXLeLaNAAIf2ikjuyeDOt6KWV5MU94u0c9OM+Zaw0FsnNjCaFyLWJWHh7RaaFVjgopMGShz+ypqZWeTpZSUSdN9PKh0sa9+4P+kEY31Q0Y6FodzwofwdG47XEqUfRPVOt/NjJDUF3UFTo86wnyozpgUyMK8O+emHMTkQ/H4VYJNEt750veAgBbjgVXDKjZERu1Yia6U8TsMRGbOKdt29BCFNFXm2g/PgRIogf9SHhxXNYkqyiX+P7hejF8n/EQDp1fWBDKRAaKJGYiqfLxLgiOLPOaEM0v1L7JYct9K1C9GNSI7eikSQ0wJK7j2aIP058lGKRFA/Nnnj1Ie9J3x9dmf/oKEI/4XykVkONSLKTV/nTHOhXvHHrD8HcaqqiiFjPLbbilDuw5GOttiwzMzdWGmvGGbSX5M62Y9belxUvv6o4wRHjYQR0FsK0Mn6B/7QPNcdvvw3uV/Jp0ccRWlXQqFNM7oA6efQrGlhhLOXECUbEoETOWemh/sENEhnbQfPkQ+erwoZ6XSv9zbLBos1l+llKyRDTwRFLJOX3gaYsb3taSd7+cK2c9h7QpJDzIkytMBZVNXFZrkTzlOPdsORpyetsu1sQHjwJ3Yq/kAFk3eMcWkKRs5XlzNECLwhzSUQrAXWm+WQgPC9GP/nNSmNVwMLIMQZNq9zr30xmbvr/B81eeVeBtg6GbQU3s6bREuYk+FW77V5E9NrtU+T2ijTtuAekHqIllbriWJkAN8Z802iSR7s6M5W9tLq4d9lCtUoAnfh8CS2RN8GSW/7XTp3/rVUW2MrJ3wv8sqqIS6i0aMSC5i3EbNLhURVd/s8Iuv1RPI8Wjesg2Uo7XfsbrSDnQbr+QovinvqnlS9CK8j4lZjed11UYgH0VsmUyVhL25AJ8gOVjVdyjK0chlZQutljMVaHduWDQqLWyNdWhu3VveBzIUc5FnSV/05TlkZWosdFhGHfdmSFGFeksr0SWkGcQY6fkFDjlGqOBmm1OrEAxpO/MPwMRuA59XRpx0bGwkGO4SK3gneWt1mXtRmsK5GgODzGbbtBgd0b3W2W33helSK7FQzH6b9gEn+iEo2IVo/BqOm2Ey3hX2kzFssYxrQ9GYyG/0Q/+7MoxCKU3vjwgJMZT+hgiug//Z1/YbkVtCtWj7Pe/6HNYiOiEbkOGo2Qx1mfoxKL1Pw4/fJmTmZ4B8VK3FfOSpZop/ztP/3t38sPWmwFDQJqnFQICnka3u1fsio6dCtHMgTTxpBXI6IWi7TvzuLGdWOn9p44/uvx41l7934ScYmXOEJuP+YetNYK3tBE9/zd74PZ8f6tC5eInl5Y0vdAxuCc5PaK9MpBPB4ysNJYY3EQSn3f1ozHCY9v9fV1uL24RP2F/A6ZfTBoq3NkK9JJcurKuq7ZoB6Sp79MOhC1iE1QmOOroDd4ODFhWXcfZyw+rLxIXM9qJCdvK7jvsNQqnrgp7wr9kEUKeT3rEpC1VCvjCq4SbydKWeNgXQJxVMuvAxMmOIW47HAXNAlnmSCtEkJPqEQu/FYIodqhrYfs3g0AYddEJ58c+pOhutPgZXhMxDI3suo3N4Y6eZ8gahnGlcEzcgvwMi7kEnpn0M8xDLpagmFchWzVRX7YXZhfnViQSp68H5gNVytcqzLiqjIWdUAos5tZ4t/9B/S16LDbK1KvU4suytWrFGuKCCLahyF0LSZMK3gue4ndai6EVEKHnpTj3VEh+PUro0IZ/ZyfmlYp1m/kNTvmZKmxlol1ELp2O9Dv73BPhizavaHnFP7YSZtr1b1TMkzWtQqxMsccxmcFiVoyOa7MPRrDhPtlcq+JbP470Bk/SYvht+3GG9JIJ69WLKiTUcO8ygSdli8vJEVUnC/Ohms1u9uOGjkJwlivosaXAnrjnS9YlygqPHMv3Oqw02m4e7kqsfrfOjHMhGTvSvZIdvb2+TMQRrKAmsbJfRDGgJ085Tk8Edj98x6Kd1Q+WIQwUlXD5elViGX4U3sm4w0rTk/1QDeE07SrEjVCB5DC7vSxqDMOArzLKX9e0Axh5OgmKGGSVjFWL6ugRrX+feXMozJqpi+2QFh1Pi8xlIVksKpvksxNHXi4irFKXzGoEYtHwKKNPhE1QiqEVzbpQY3zWgFYk3lZRoIvGVYjFjkTukZ61AOWNFAcarjIr1jcE1Az6D53BixJIUcmen7cv3qxDBcqB6nWx2DBwBCLBOE8RLK/lkICf3AbWJBeNIMEoRxWNRbcucKRtRznEiy0uqi7mSHd3goRVcteJNBH4sG0atapK717dlVjGaYpGuTvXwWThvWtkL4HkWW+KkKScPAMmHSakpDAvbbBasfat9muq+U+nAemjDxiyVaDTEWzqeW8IiGJP9sOZjycl6eRRBfCqseCnkZOV4ultn+EiMoC3yyVhu6YHCCqiCT74ZFSiGjiCK3o/6hzG75BLEjJ9iKJE3bYIILcOVpEkldNB3PiOgUkDUp//twE4XWN7CpGHcl5Fb5FrOaTquH76YVnIIyM9R4K9bLXlYJJ3efcg0gS5V01+yEMWxXDoo5LqIFvEgv65phB1OHU1g9NIX+p8KKsoF7Rg31gWsEQi3qSMJe+DYLrsl1yMiLq+dYvfKNYcKOVGjQs/sX/5MaDwbukTUE+aM2fuwUWNLidGMAjX5hv/wgGZ+pG2WIFA6hHZ+FbxYJE/2wpGq7Yvnf9VEZZpn+vH/94JC3fwXAYyHH/BlgyUsRhIFZmT80nNe3zr86z29pPX/7E2F0YSNixAb5dLMgdMtZCr6S6ub2vUks+Jye/KVlXlT/tkCUvBml1Byza+CeHBi6PSnk3H302fzr5XkrJpZdZLMNwaER/6YZvGQtydwa9Dy0qkl3OlnlezZbtkiJiEEVEK9PqKBaDEGdYXsiWeUbIZiiny4tBCKPd8G1jQW+4r9h5vRgS/SUDluH5FQpD8Yb5PcXXWQbfOhbcHKUVtIzzHe2HZUm8IHvRMlZum4VvHwv2lfAsWkRR15e97LeO+qbRouLD5QDfLhapYY+goAUzvrM5sHyzG6cZL1rgpI/cgG8ai9RyyeFGs7x847N+WJH2UYFFsxTh4umHEBUJK4lFzmKkerymUrnV0R5Yqea6C3SluVS851ICREnvayUasWB25KzsdmEEikN+kNcFUdC/cY+v0YsRcMWeIzaImh4BVxCLtL/8QaMsiRiSKAnsaF4zREn/57NMMYehuTyC95AtE6InUV5ZLFLzwC/5DpVVvGjgVTyqO/+8rQuiaDzv0PEiWRK9wY6K3QL7e8oNIHzjWEbvGlJ/lBwCz864xP9ycSwvOLgD5xfjIeqa0i/lexjVLSnE7zUygttV0WF7CvDtY4W3/87Is1e1yHrc/4dqZI//+Or8yONx+B95V7AltSKfW/o9lv104HJbQ0szkFY/lnlxZbeeDD+vrq5+Xj1w90xZHPyPNW9rac/55/caEh9vHQfCqsb6buWxvsf6D3xnOtYm+M766yjffY+19mPFZqzvbOZjfZdkPtZ35f+bWJn7+jIKhgcGhgsy+v5fdfcB3cSVLgD4N708ON42QgLSbFmr5KRIdopFngljqngmoe2hp1DTCzU9sPSa5ofh5NCetrCcjbstU+yRG8UalRkbhuJxN9WYDtvT4/+qeYos/L7DqdT5uf+dOzP/vf+fo6HDpWdkZmXnfCs3L9+eBB1kGwqW/tdp4YjTvcvnb13/9J7pqZZvWWfsGTPiqVX97k3qsDgV7D9w8FBhURHjYByO4qKS0rLyw0fsHR0sy6xxoNLcz/eN+GS4NkVjMRis3zMYhpvMZstvpsxfEQ1hZ885eqykwsm6GLfb8x23m/FyTt5debAq09aRaWh5XGWw+g96KFVrQoeHoAOfYrVLd4yeCuFkO36issLpYjyCr2K3g+VLTp463YEj6/ENoMIrjy4ya1KpoAwa7Z4nXoRwse8/w1R7yUBhxYzIVh7NgzBaSKThUBWhmqJpv+9nHG2ZuAzCoaaqVuTcQmjF3uq6+gYIm346tC1kz8ug0IqJJp2VksCaqN/bH1RrbOJdxYIETHXd0XwIkw8oQ1ueTP89KDK0ZzstUrFU86JBKufGzIMc116oULgqmyE85qHDc6z65aDEk3+VV31gMa/5AFQ4Vch7BBlc7NlzEA5pczSoHHYVyBc1elMsJZNu0VgbKJRRz1YI8niqz+dAODyPDuSgtypIwSfMcZRsliFvrANF8pqcHkE214WLEAa70Qw/fmAayPTx2s2/pRSwbp7yf6DApUJRUKCF4S+ng2qDE9FKaEZ/kKfrdjMVkEEfk0jrdLTOpA+y9EqZ8BHI1njB1RJ4UVXBsaz47Q/O4Qmciq1XakCtSXvaJudkeqXMspLHAh0EZYjV6ahfr5+95I03lsweNobS6WIMAVvKfiQ/VhUBYsWIIldSevXa9fIbN8uOVTpE0eUJEM/qkxmgUtQwtGPJOMUGMmxZ7R8rq4mesf6lh/v/9GV1bpf+D780bEaKJoHylYijJS1WXr9YuUW2sOzWpYKMJPhezbms5vraCtYr+Gm9rjoTe9JK8/Ce7Ua/UOn0O3ps8Yt4dP/598cY/ZZi5rVDQYbj/uOK4YuuNWeCL/u3T42i/6rVecMG6ryoRzO0uSdItnFNos+4StDpJwYrlElbPnt8bLJvtJbMBcnyCn3nKzd7u7wBAjt96pjo8s1E/g6os+45DUWcuSRV3wEUabxx9jII4ZU1Oj1FGvACSJXRxPrEinPUF0Bw9lOl1W7fnG0GTGX/HvN8kGilzxNOQsrbI6MgpLljH6QpgkH6EQv1rQLW4nY2HYfQTh91cALBW5IHqnwQl6qgj1bXRcPJyzY/Ok/CvddnsyQ1Xmrbz2bWQ8TK67pjh3ZlV/JkiNlDNaBG1E4jJXvWmrw+kdwqGb8vCiRIu08XR/b7nS3l99nOFVYQF83d3g9SnLvp8xzpPACqdNfhV07S9uGu0ibjS45f+ghINFZvoZBkaed+XeGJWInnc0Ga9HIyWkxdVvimeMo4LA3ateABPRGractBspFktMY/3QXa1ch5yFjlgVRJ5dVEtNiyKLXvlhHzPmjXVi2FWDY9DDKMjP+Skpf4Ncc4IgelxApFi8UrrmJ2P6ixgRhaX25aCO34DHdHolJjR4Isq4i3qnG/mwrtqOKLUawqbsvLpKQbTgHhjqWHcWhpZvaX0hhZRevMrVpZPdbtpS68WHLJHRr2Q2ILGlqiuqE1eZiROJjinTchlP6LDOhX0zsng0zjHjLiLP7NPAipmcd55DwKcuXd9uKh9bdoUKMf+SKFDn0yzgtafKkPTgLZVnwYh4dW6Fky6m8cvlQlK6VTIgq3h8sGZVBiICmhojV0lh7f+v8LFNiNE1kzcB2EcAR/RmUuHAf5kspEfEO8orL0/m0NhdFrg4+XR/C6LEbZoUEbfx2PdtmYFkIIl/H8zNeDElkXGBTwkkxQZXCMgWy+9PYyCMz2Kxo9EcY+DIpsS0yW+PLfXunF11kAitTzOOJVoM5XmykiWpoPxyZBIG/hbgqx66MVroQHavDCdCgElVPhQZdZDsrk1aGhxZWBOuN20OTrqbjEvW8FzEIjGhNDngWF8NF0Cainl58TTvywkgcKXWGFnzkKz4E6kx7UkNFKSFm9cnLoe4EeNd+V6S3cxJfuCcGkH0OLLPEaKJXt8qheaiHd/E7G0dMjFtqAlIZPDaVfAMX6oPcWpvW2oPlThPJHxUXWlLrItZpK20xfUqTkWM2UhdGAfTTDSjYIUKo7OoRoePCTqPejZ2hGTfocRXnIXQXVeqQY/D9BxK9fiY8wXI76EenROb+y4RuF1fIkBHGnFQ2sMhsols0Vo0nLDqrt1v4cLbQK0v1m8TNTN8APRqN7fkpvUAE3EN38CCCoDaftOlpOsrdAuXOFjrbny6I8UG++yUL5i9MZkx/q1XPsyG/tiG9L0sRBQMg/fPDkjap88JN75/rN8pxoIPRMQd8QewIh88DZsh8UonmZOw4qXOXa/iTXJQiDL3ahtoRtklM1KUNiNCaTKQ61GdUvBKz5PM+LPH++GUj2ei/PstXcmQLARqKVXezXgJ267eTFH7hbwrXyvozGaGszhMPgB3RUEMkJ38LzmXUqIFXsD/ebCrYKsJqyv7uFb3mclcTFLjNY0e0QkP1ihRBARa0dVPgHmuH5WxAWKyZoJRbGxM3qQqyRf7pCL7l0vNX608zaeg1P0FtQmYUGd8HOqORahAC4qzZQoRHfDi9DeHR5IlFPSRH/HF6Snmi7bTlPAL70n4eJpyIX2tz7uCXw6raZFwJir4Eax1Eauq5AuGwLfW4R6pyJ35O70Ou1dFRShYqA+ItEPypL4E/h9awQkHgD1GgocndEsGBSn1hTsrxg2Uu9bZNLaQYaJ2h9I+IhFz0wHq3YULCuc0GCdaITBQt7eG3oc4twm1G/YLlK7Wi2dqFgHcCP7mP0gYN1JViwyjtpsGDDyu0pmtAzffxD6A1n0jU28ORSgB7u+P1km9HAaXjAGWTOug5q5Do84Q0WNmrbBE1KXIjhNfzTofh+//PHzGIiJrZr1T/PZZUZuKx8lgWVs6KMznIwgYNVBmpk8x0ywaNzi35D05Zg48vwF/zCK73s7z/GqrUsnXyl+2NaMWwzIB9Mx0sHQG78XcDwfUOFZhZl9B3oAPO+2DtrvHmI3hDgtFGr5XNATp/5O+fxuLnWM/lAaLztdHg8DF9xEbCHjW3/C7GzAck/9Hev50e4YKgyH1S4g1fwh6FjdOn2y4m/nm4x0QPMuiE0Ovs+wTQSsJqLTR5GaPpHOvjIqy9kmJKb2UAYPYBoPo5lHD3PMO7vMMV4Z1wDqIAfyZ2N0HFGLej2zL6v+i5e3Ps5A/pi9gKQagqOFNRAAKcbcs+Bj17oucqvmc7prCPfyT3yN/TOTlWZQk1p2zOUh8mFSNiGGl7GqNlVnYZWDsn0wxBEuTNMa4eGOjd6JM+HSPgctXMyLPoYFHtxqQHdKrpCEIfxPexYDShWxaPZrzQKImEoWh0l6FaCYoM248ZBGyCI44wnPNlzjUP5fAMiwjY7ETdYt4FCc/8QL+noroxCBl3kHVAqs4RB8/s/IDL2paDSrKVdQaF+49GzunYbBHWdRXlYmgEK3UJZ6PbkQmR8Hoeukv4KFOqdgvvQbYGgDuOCI7E5HF/CKkrTITLSBqL8sexRNsWTDbRiRyQBhP5wqLa26hRbrP6zoepdBgqHVm9aahM921UOrUsVDq2aWjSwPN7jECkrcB4aPvxMWfUcbh36wMuSKkrxrCV/xsIrkHSIlKQRuMhRNyUKZBt3P241lrgYQskvdOAqyTsgX0EJ8Ufcgsh5NjFZXekf2aj4t5pXAAtcR6Om9C+6jBXIGprI+d+BGqLt56sg0yu7DMQ2hbkyaqtauNLT8pMQV/BWX4ZIWqklO7u9CbJMXR1P7FL8o4SyPaT6erTcHbCMQNZ4RdK45zQUQu9cBzK8eb+OkjOw8NBSUv6Xe5vY1elEvztisxaSslhGtO7dQVOINaYfYMFmLcTDHwDp8s5zOFbeSM1YaNsdccHJm5cMlTyuyFhR5q+hfacrXQLi5o4mSR5XKFYRfSzEu3csPs2lPgJJuv6VjJX+wQUK9ma6+Xq7xPnqNhGrFvFQDUTcaG0yhdGvLwQJus/UkcVfic+AJNedAlbsPCRlmk6/5SB37DMXciHy5u40UwSNZfdGaEeX/zb5FDSZpfaCP+dbLMLePtXub807yTMtRIz5i3A3LHhcQxEM2gnLIZSoZ7ebU8li+9iBXUCi7AuMgLV4xZtZEIr9VglbLBD46zaIILyytFCkGE2IQ+qiX5kSq6FI+t/9XubKEitm68rzQpxUUMs7BEKLWHsa7pKVOoNfta5lyrP/E/AeuG29xphAkSwx3UGGy62CD4avO5hTAwEU3CplXQKpxXW7Ae6a3f7d+qxG3Wtv/PGjJECSpnbv83aiye/XfmkaC3Kkn20VfDGsq/RE9jnAarKqrpX4nwnYUoGfKiPO9lKKlfKVrNfRv9nRd9Uf+63o33VFv+6je+3YQ+uGB+pxuA/ksZ9pFfx4Kliu8urlfzReamhoOJLdfOB6bRHPofmtLVaNcFe9hFr4InEmo46mrTNmWGlaZ0RbERCLZj7IlXGy2iP4K3ZwIsuLRUVFDp4VOZdb8NfiutuxAtv8WD0VTKrBkEoF8V78rpUg3+Qb5PEyWLHbzZChxMTbx+Gue+RdE6UAPW0wKBF9VPS2CLIV87UN0Am8uH1zAiWTVbv2M1Co+bao4MS/s6ehU7h3r3E8JYvG+NRGUCzrkJORN7jEuotR0EnYRj6uNVCSfal9fTCoYT9wgS0WJPM6D+VCJzLvKYvOSkliSNl0372gUu5JkROkYZyFF2ugc3lxikZnkBAqOm7vClAvan9TNecR2uXg68ozodOxLZxoMOtDTvUJevOHez+H8KhpPsSxjBCKx+UsLG+Azunz+5420sODpKNVTxvHvP8ZhE96ztmSag6XUWLuimrvsVuZ0Hl16b738fGbY4YbrEScvtQbB1ie3jp4FIRZZlVZoejkHG4iIz2MV3R6ao9eSodObujCfbMf/0v8ALNR8z2dVmvZM2bJoG5/hg5xbv/Rq4VFrlaec32PbeWZktIb/ziSDv8/pH28rPuqF3r36dOn99cv9ej+4ry50KHsednNty5f+d6dw425+VHQvm8AyMyZjy3COasAAAAASUVORK5CYII=;" vertex="1" parent="1">
          <mxGeometry x="160" y="70" width="23.75" height="23.75" as="geometry" />
        </mxCell>
        <mxCell id="DV4N-qlM-KyrqjE6VusM-39" value="GitHub Actions Workflow" style="text;html=1;align=left;verticalAlign=middle;whiteSpace=wrap;rounded=0;fontStyle=0;fontSize=17;" vertex="1" parent="1">
          <mxGeometry x="190" y="70" width="190" height="30" as="geometry" />
        </mxCell>
        <mxCell id="DV4N-qlM-KyrqjE6VusM-53" value="" style="group" vertex="1" connectable="0" parent="1">
          <mxGeometry x="157" y="187" width="208" height="30" as="geometry" />
        </mxCell>
        <mxCell id="DV4N-qlM-KyrqjE6VusM-50" value="Call AssumeRoleWithWebIdentity, passing the OIDC token" style="text;html=1;align=left;verticalAlign=middle;whiteSpace=wrap;rounded=0;" vertex="1" parent="DV4N-qlM-KyrqjE6VusM-53">
          <mxGeometry x="23" width="185" height="30" as="geometry" />
        </mxCell>
        <mxCell id="DV4N-qlM-KyrqjE6VusM-51" value="2" style="ellipse;whiteSpace=wrap;html=1;aspect=fixed;spacing=2;spacingLeft=1;" vertex="1" parent="DV4N-qlM-KyrqjE6VusM-53">
          <mxGeometry y="2" width="20" height="20" as="geometry" />
        </mxCell>
        <mxCell id="DV4N-qlM-KyrqjE6VusM-54" value="" style="group" vertex="1" connectable="0" parent="1">
          <mxGeometry x="156" y="115" width="210" height="70" as="geometry" />
        </mxCell>
        <mxCell id="DV4N-qlM-KyrqjE6VusM-47" value="Generate OIDC token, which includes the repo/branch the workflow is in, and a signature" style="text;html=1;align=left;verticalAlign=middle;whiteSpace=wrap;rounded=0;" vertex="1" parent="DV4N-qlM-KyrqjE6VusM-54">
          <mxGeometry x="23" y="-18" width="187" height="70" as="geometry" />
        </mxCell>
        <mxCell id="DV4N-qlM-KyrqjE6VusM-48" value="1" style="ellipse;whiteSpace=wrap;html=1;aspect=fixed;align=center;spacingLeft=1;" vertex="1" parent="DV4N-qlM-KyrqjE6VusM-54">
          <mxGeometry y="5" width="20" height="20" as="geometry" />
        </mxCell>
        <mxCell id="DV4N-qlM-KyrqjE6VusM-56" value="" style="group" vertex="1" connectable="0" parent="1">
          <mxGeometry x="547" y="187.63" width="208" height="30" as="geometry" />
        </mxCell>
        <mxCell id="DV4N-qlM-KyrqjE6VusM-57" value="Validate:&amp;nbsp;&lt;span style=&quot;background-color: initial;&quot;&gt;token signature using OpenID Provider thumbprint&lt;/span&gt;" style="text;html=1;align=left;verticalAlign=middle;whiteSpace=wrap;rounded=0;" vertex="1" parent="DV4N-qlM-KyrqjE6VusM-56">
          <mxGeometry x="23" width="185" height="30" as="geometry" />
        </mxCell>
        <mxCell id="DV4N-qlM-KyrqjE6VusM-58" value="3" style="ellipse;whiteSpace=wrap;html=1;aspect=fixed;spacingLeft=1;" vertex="1" parent="DV4N-qlM-KyrqjE6VusM-56">
          <mxGeometry y="2" width="20" height="20" as="geometry" />
        </mxCell>
        <mxCell id="DV4N-qlM-KyrqjE6VusM-61" value="" style="group;spacingLeft=1;" vertex="1" connectable="0" parent="1">
          <mxGeometry x="547" y="227.5" width="208" height="30" as="geometry" />
        </mxCell>
        <mxCell id="DV4N-qlM-KyrqjE6VusM-62" value="Validate repo and branches are allowed to assume IAM role" style="text;html=1;align=left;verticalAlign=middle;whiteSpace=wrap;rounded=0;" vertex="1" parent="DV4N-qlM-KyrqjE6VusM-61">
          <mxGeometry x="23" width="185" height="30" as="geometry" />
        </mxCell>
        <mxCell id="DV4N-qlM-KyrqjE6VusM-63" value="4" style="ellipse;whiteSpace=wrap;html=1;aspect=fixed;" vertex="1" parent="DV4N-qlM-KyrqjE6VusM-61">
          <mxGeometry y="2" width="20" height="20" as="geometry" />
        </mxCell>
        <mxCell id="DV4N-qlM-KyrqjE6VusM-65" value="" style="group" vertex="1" connectable="0" parent="1">
          <mxGeometry x="547" y="262.63" width="208" height="30" as="geometry" />
        </mxCell>
        <mxCell id="DV4N-qlM-KyrqjE6VusM-66" value="Grant short-lived AWS credentials" style="text;html=1;align=left;verticalAlign=middle;whiteSpace=wrap;rounded=0;" vertex="1" parent="DV4N-qlM-KyrqjE6VusM-65">
          <mxGeometry x="23" y="-3" width="185" height="30" as="geometry" />
        </mxCell>
        <mxCell id="DV4N-qlM-KyrqjE6VusM-67" value="5" style="ellipse;whiteSpace=wrap;html=1;aspect=fixed;spacingLeft=1;" vertex="1" parent="DV4N-qlM-KyrqjE6VusM-65">
          <mxGeometry y="2" width="20" height="20" as="geometry" />
        </mxCell>
        <mxCell id="DV4N-qlM-KyrqjE6VusM-68" style="edgeStyle=orthogonalEdgeStyle;rounded=0;orthogonalLoop=1;jettySize=auto;html=1;exitX=-0.002;exitY=0.388;exitDx=0;exitDy=0;entryX=0.997;entryY=0.629;entryDx=0;entryDy=0;entryPerimeter=0;dashed=1;exitPerimeter=0;" edge="1" parent="1" source="DV4N-qlM-KyrqjE6VusM-22" target="DV4N-qlM-KyrqjE6VusM-27">
          <mxGeometry relative="1" as="geometry" />
        </mxCell>
        <mxCell id="DV4N-qlM-KyrqjE6VusM-70" value="" style="group" vertex="1" connectable="0" parent="1">
          <mxGeometry x="156" y="262.63" width="208" height="30" as="geometry" />
        </mxCell>
        <mxCell id="DV4N-qlM-KyrqjE6VusM-71" value="Use AWS credentials to run&lt;div&gt;&lt;font face=&quot;Courier New&quot;&gt;tofu test&lt;/font&gt;&lt;/div&gt;" style="text;html=1;align=left;verticalAlign=middle;whiteSpace=wrap;rounded=0;" vertex="1" parent="DV4N-qlM-KyrqjE6VusM-70">
          <mxGeometry x="23" width="185" height="30" as="geometry" />
        </mxCell>
        <mxCell id="DV4N-qlM-KyrqjE6VusM-72" value="6" style="ellipse;whiteSpace=wrap;html=1;aspect=fixed;spacingLeft=1;" vertex="1" parent="DV4N-qlM-KyrqjE6VusM-70">
          <mxGeometry y="2" width="20" height="20" as="geometry" />
        </mxCell>
        <mxCell id="DV4N-qlM-KyrqjE6VusM-76" style="edgeStyle=orthogonalEdgeStyle;rounded=0;orthogonalLoop=1;jettySize=auto;html=1;exitX=1;exitY=0.5;exitDx=0;exitDy=0;entryX=0.75;entryY=1;entryDx=0;entryDy=0;dashed=1;" edge="1" parent="1" source="DV4N-qlM-KyrqjE6VusM-57" target="DV4N-qlM-KyrqjE6VusM-29">
          <mxGeometry relative="1" as="geometry">
            <Array as="points">
              <mxPoint x="775" y="203" />
              <mxPoint x="775" y="170" />
              <mxPoint x="669" y="170" />
            </Array>
          </mxGeometry>
        </mxCell>
        <mxCell id="DV4N-qlM-KyrqjE6VusM-77" style="edgeStyle=orthogonalEdgeStyle;rounded=0;orthogonalLoop=1;jettySize=auto;html=1;exitX=1;exitY=0.5;exitDx=0;exitDy=0;dashed=1;" edge="1" parent="1" source="DV4N-qlM-KyrqjE6VusM-62" target="DV4N-qlM-KyrqjE6VusM-22">
          <mxGeometry relative="1" as="geometry" />
        </mxCell>
        <mxCell id="DV4N-qlM-KyrqjE6VusM-84" style="edgeStyle=orthogonalEdgeStyle;rounded=0;orthogonalLoop=1;jettySize=auto;html=1;dashed=1;" edge="1" parent="1" source="DV4N-qlM-KyrqjE6VusM-47" target="DV4N-qlM-KyrqjE6VusM-50">
          <mxGeometry relative="1" as="geometry" />
        </mxCell>
        <mxCell id="DV4N-qlM-KyrqjE6VusM-87" style="edgeStyle=orthogonalEdgeStyle;rounded=0;orthogonalLoop=1;jettySize=auto;html=1;exitX=1;exitY=0.5;exitDx=0;exitDy=0;entryX=0.001;entryY=0.476;entryDx=0;entryDy=0;entryPerimeter=0;" edge="1" parent="1" source="DV4N-qlM-KyrqjE6VusM-50" target="DV4N-qlM-KyrqjE6VusM-4">
          <mxGeometry relative="1" as="geometry" />
        </mxCell>
        <mxCell id="DV4N-qlM-KyrqjE6VusM-88" value="&lt;div&gt;🔒&lt;/div&gt;OIDC&amp;nbsp;&lt;div&gt;token&lt;/div&gt;" style="edgeLabel;html=1;align=center;verticalAlign=middle;resizable=0;points=[];" vertex="1" connectable="0" parent="DV4N-qlM-KyrqjE6VusM-87">
          <mxGeometry x="-0.1185" y="1" relative="1" as="geometry">
            <mxPoint x="31" as="offset" />
          </mxGeometry>
        </mxCell>
        <mxCell id="DV4N-qlM-KyrqjE6VusM-89" style="edgeStyle=orthogonalEdgeStyle;rounded=0;orthogonalLoop=1;jettySize=auto;html=1;exitX=0;exitY=0.5;exitDx=0;exitDy=0;entryX=0.999;entryY=0.691;entryDx=0;entryDy=0;entryPerimeter=0;" edge="1" parent="1" source="DV4N-qlM-KyrqjE6VusM-67" target="DV4N-qlM-KyrqjE6VusM-32">
          <mxGeometry relative="1" as="geometry" />
        </mxCell>
        <mxCell id="DV4N-qlM-KyrqjE6VusM-90" value="&lt;div&gt;🔒&lt;/div&gt;AWS&lt;div&gt;credentials&lt;/div&gt;" style="edgeLabel;html=1;align=center;verticalAlign=middle;resizable=0;points=[];" vertex="1" connectable="0" parent="DV4N-qlM-KyrqjE6VusM-89">
          <mxGeometry x="0.3002" relative="1" as="geometry">
            <mxPoint x="9" as="offset" />
          </mxGeometry>
        </mxCell>
      </root>
    </mxGraphModel>
  </diagram>
</mxfile>
